<?xml version="1.0" encoding="UTF-8"?> <svg xmlns="http://www.w3.org/2000/svg" width="32" height="32" viewBox="0 0 32 32" fill="none"><rect width="32" height="32" rx="3" fill="#FEC015"></rect><rect width="32" height="32" rx="3" stroke="black"></rect><path d="M1.28938 15V10.8H2.70538V15H1.28938ZM3.20704 15V10.8H4.37104L6.05104 13.542H5.43904L7.07104 10.8H8.23504L8.24704 15H6.95704L6.94504 12.744H7.14904L6.03304 14.622H5.40904L4.24504 12.744H4.49704V15H3.20704ZM8.75165 15V10.8H10.7736C11.1656 10.8 11.5036 10.864 11.7876 10.992C12.0756 11.12 12.2976 11.304 12.4536 11.544C12.6096 11.78 12.6876 12.06 12.6876 12.384C12.6876 12.708 12.6096 12.988 12.4536 13.224C12.2976 13.46 12.0756 13.644 11.7876 13.776C11.5036 13.904 11.1656 13.968 10.7736 13.968H9.53765L10.1676 13.362V15H8.75165ZM10.1676 13.518L9.53765 12.876H10.6836C10.8796 12.876 11.0236 12.832 11.1156 12.744C11.2116 12.656 11.2596 12.536 11.2596 12.384C11.2596 12.232 11.2116 12.112 11.1156 12.024C11.0236 11.936 10.8796 11.892 10.6836 11.892H9.53765L10.1676 11.25V13.518ZM14.268 12.36H16.14V13.38H14.268V12.36ZM14.364 13.932H16.464V15H12.972V10.8H16.386V11.868H14.364V13.932ZM16.8291 15V10.8H18.8511C19.2431 10.8 19.5811 10.864 19.8651 10.992C20.1531 11.12 20.3751 11.304 20.5311 11.544C20.6871 11.78 20.7651 12.06 20.7651 12.384C20.7651 12.708 20.6871 12.988 20.5311 13.224C20.3751 13.456 20.1531 13.634 19.8651 13.758C19.5811 13.882 19.2431 13.944 18.8511 13.944H17.6151L18.2451 13.362V15H16.8291ZM19.3431 15L18.3111 13.47H19.8111L20.8551 15H19.3431ZM18.2451 13.518L17.6151 12.876H18.7611C18.9571 12.876 19.1011 12.832 19.1931 12.744C19.2891 12.656 19.3371 12.536 19.3371 12.384C19.3371 12.232 19.2891 12.112 19.1931 12.024C19.1011 11.936 18.9571 11.892 18.7611 11.892H17.6151L18.2451 11.25V13.518ZM21.1199 15V10.8H22.5359V15H21.1199ZM22.5815 15L24.4175 10.8H25.8095L27.6455 15H26.1815L24.8255 11.472H25.3775L24.0215 15H22.5815ZM23.6735 14.268L24.0335 13.248H25.9655L26.3255 14.268H23.6735ZM27.6915 15V10.8H29.1075V13.902H31.0035V15H27.6915ZM10.8048 17.8H12.2208V22H10.8048V17.8ZM9.49675 22H8.08075V17.8H9.49675V22ZM10.9008 20.452H9.40075V19.288H10.9008V20.452ZM12.267 22L14.103 17.8H15.495L17.331 22H15.867L14.511 18.472H15.063L13.707 22H12.267ZM13.359 21.268L13.719 20.248H15.651L16.011 21.268H13.359ZM17.377 22V17.8H18.793V20.902H20.689V22H17.377ZM20.9001 22V17.8H22.3161V20.902H24.2121V22H20.9001Z" fill="black"></path></svg> 