<?xml version="1.0" encoding="UTF-8"?>
<!DOCTYPE svg PUBLIC "-//W3C//DTD SVG 1.1//EN" "http://www.w3.org/Graphics/SVG/1.1/DTD/svg11.dtd">
<svg xmlns="http://www.w3.org/2000/svg" version="1.1" width="512px" height="512px" style="shape-rendering:geometricPrecision; text-rendering:geometricPrecision; image-rendering:optimizeQuality; fill-rule:evenodd; clip-rule:evenodd" xmlns:xlink="http://www.w3.org/1999/xlink">
<g><path style="opacity:0.95" fill="#fff" d="M 245.5,-0.5 C 252.167,-0.5 258.833,-0.5 265.5,-0.5C 294.895,8.58533 308.062,28.5853 305,59.5C 304.227,63.1532 303.06,66.6532 301.5,70C 354.623,87.2892 390.956,122.122 410.5,174.5C 447.816,175.664 471.982,193.997 483,229.5C 488.763,260.952 478.763,285.952 453,304.5C 448.333,321.833 443.667,339.167 439,356.5C 434.752,361.596 429.585,362.763 423.5,360C 419.741,356.257 418.574,351.757 420,346.5C 422.45,335.863 425.284,325.363 428.5,315C 402.159,319.164 379.826,311.664 361.5,292.5C 339.868,314.425 314.201,320.925 284.5,312C 273.141,307.989 263.475,301.489 255.5,292.5C 233.885,314.487 208.219,320.987 178.5,312C 167.141,307.989 157.475,301.489 149.5,292.5C 131.174,311.664 108.841,319.164 82.5,315C 96.4047,366.783 110.238,418.617 124,470.5C 128.892,483.057 138.058,489.891 151.5,491C 223.193,491.977 294.86,491.644 366.5,490C 374.413,487.423 380.58,482.589 385,475.5C 389.309,461.601 393.309,447.601 397,433.5C 401.34,427.136 406.84,425.969 413.5,430C 415.652,432.424 416.985,435.257 417.5,438.5C 413.668,452.494 409.835,466.494 406,480.5C 398.541,496.465 386.374,506.798 369.5,511.5C 293.5,511.5 217.5,511.5 141.5,511.5C 124.626,506.798 112.459,496.465 105,480.5C 89.3333,421.833 73.6667,363.167 58,304.5C 28.953,282.687 19.953,254.354 31,219.5C 44.5021,189.871 67.6687,174.871 100.5,174.5C 120.044,122.122 156.377,87.2892 209.5,70C 200.789,46.8465 205.455,26.8465 223.5,10C 230.266,5.11514 237.6,1.61514 245.5,-0.5 Z M 248.5,20.5 C 273.644,19.4764 285.477,31.4764 284,56.5C 276.555,76.2176 262.722,82.7176 242.5,76C 226.664,65.8163 222.497,51.983 230,34.5C 234.526,27.5054 240.693,22.8387 248.5,20.5 Z M 222.5,88.5 C 238.779,100.171 256.446,102.671 275.5,96C 279.929,93.8977 284.095,91.3977 288,88.5C 334.136,100.965 367.136,128.965 387,172.5C 389.399,178.363 391.399,184.363 393,190.5C 394.964,194.799 398.298,197.132 403,197.5C 426.112,193.394 444.112,201.061 457,220.5C 468.595,244.522 464.761,265.689 445.5,284C 413.607,302.861 387.607,296.528 367.5,265C 363.5,263 359.5,263 355.5,265C 350.254,273.582 343.587,280.915 335.5,287C 310.499,300.401 288.333,296.567 269,275.5C 267.114,271.56 264.614,268.06 261.5,265C 257.5,263 253.5,263 249.5,265C 244.254,273.582 237.587,280.915 229.5,287C 205.123,300.14 183.289,296.64 164,276.5C 161.533,272.4 158.699,268.566 155.5,265C 151.5,263 147.5,263 143.5,265C 123.393,296.528 97.3932,302.861 65.5,284C 46.2375,265.684 42.4042,244.517 54,220.5C 66.8881,201.061 84.8881,193.394 108,197.5C 112.702,197.132 116.036,194.799 118,190.5C 130.868,147.299 157.701,116.133 198.5,97C 206.571,94.034 214.571,91.2006 222.5,88.5 Z"/></g>
<g><path style="opacity:0.94" fill="#fff" d="M 159.5,331.5 C 165.59,330.137 170.09,332.137 173,337.5C 179.296,373.978 185.462,410.478 191.5,447C 190.466,456.029 185.466,459.362 176.5,457C 173.572,455.74 171.739,453.573 171,450.5C 164.617,414.205 158.451,377.871 152.5,341.5C 153.321,337.027 155.655,333.693 159.5,331.5 Z"/></g>
<g><path style="opacity:0.987" fill="#fff" d="M 251.5,331.5 C 257.59,330.137 262.09,332.137 265,337.5C 265.667,375.833 265.667,414.167 265,452.5C 261.345,457.275 256.512,458.775 250.5,457C 248.667,455.833 247.167,454.333 246,452.5C 245.333,414.167 245.333,375.833 246,337.5C 247.36,334.977 249.193,332.977 251.5,331.5 Z"/></g>
<g><path style="opacity:0.94" fill="#fff" d="M 343.5,331.5 C 354.159,330.327 358.992,334.994 358,345.5C 352.097,381.588 345.763,417.588 339,453.5C 333,458.833 327,458.833 321,453.5C 319.632,450.262 319.299,446.928 320,443.5C 326,408.167 332,372.833 338,337.5C 339.36,334.977 341.193,332.977 343.5,331.5 Z"/></g>
<g><path style="opacity:0.886" fill="#fff" d="M 413.5,384.5 C 424.471,382.972 429.304,387.638 428,398.5C 422.485,406.668 416.152,407.334 409,400.5C 406.172,393.851 407.672,388.518 413.5,384.5 Z"/></g>
</svg>
