<?xml version="1.0" standalone="no"?>
<!DOCTYPE svg PUBLIC "-//W3C//DTD SVG 20010904//EN"
 "http://www.w3.org/TR/2001/REC-SVG-20010904/DTD/svg10.dtd">
<svg version="1.0" xmlns="http://www.w3.org/2000/svg"
 width="512.000000pt" height="512.000000pt" viewBox="0 0 512.000000 512.000000"
 preserveAspectRatio="xMidYMid meet">

<g transform="translate(0.000000,512.000000) scale(0.100000,-0.100000)"
fill="#000000" stroke="none">
<path d="M2353 4838 c-5 -7 -17 -34 -27 -59 -24 -66 -75 -121 -137 -148 -83
-36 -84 -37 -84 -65 0 -24 8 -30 59 -51 32 -13 74 -39 93 -57 36 -34 83 -115
83 -142 0 -19 34 -38 54 -30 8 3 20 22 26 42 17 52 67 125 105 151 18 12 55
30 81 41 43 16 49 22 49 46 0 24 -7 30 -55 50 -77 31 -127 76 -157 143 -14 31
-29 63 -33 71 -9 20 -44 25 -57 8z m42 -137 c5 -18 67 -82 114 -118 l23 -19
-41 -27 c-22 -15 -57 -49 -77 -76 l-37 -49 -31 46 c-17 25 -53 60 -79 78 l-48
33 29 15 c30 16 122 111 122 127 0 17 19 9 25 -10z"/>
<path d="M4060 4564 c-66 -29 -94 -68 -190 -275 -52 -109 -96 -199 -99 -199
-3 0 -31 58 -61 127 -67 155 -108 203 -195 228 -36 11 -70 14 -93 10 -53 -9
-481 -201 -522 -234 -51 -41 -79 -104 -80 -176 0 -52 8 -78 60 -194 33 -74 59
-135 57 -137 -2 -2 -70 17 -152 42 -255 77 -287 85 -330 78 -137 -22 -214
-167 -154 -292 37 -75 67 -89 392 -181 l296 -84 41 -90 c22 -49 39 -91 38 -92
-2 -1 -52 -28 -111 -59 -170 -88 -216 -80 -367 68 -110 108 -142 127 -225 133
-112 9 -201 -36 -260 -132 -27 -44 -30 -56 -30 -134 0 -84 1 -88 44 -159 69
-115 68 -195 -6 -281 l-36 -42 -26 24 c-61 56 -289 218 -421 299 -404 248
-768 378 -1020 365 -125 -6 -194 -32 -260 -97 -77 -78 -95 -135 -95 -305 1
-120 5 -155 28 -244 110 -412 453 -988 810 -1358 l49 -51 -11 -64 c-24 -142
-3 -280 64 -406 52 -99 256 -339 309 -363 70 -32 165 -20 219 29 11 9 77 103
148 208 70 105 135 194 144 198 31 12 46 6 110 -43 208 -159 531 -268 815
-274 l95 -2 -1 115 c-4 288 -123 622 -297 833 -23 28 -37 53 -33 62 3 8 90 71
194 139 104 69 201 139 215 156 50 59 59 147 22 223 -24 51 -289 268 -380 312
-126 60 -295 79 -412 46 -28 -8 -36 -4 -120 73 l-90 83 43 56 c81 108 82 208
2 340 -36 60 -41 76 -41 127 0 146 148 244 283 188 19 -8 76 -56 126 -107 111
-110 159 -136 256 -135 62 0 76 5 179 58 61 32 115 54 119 49 8 -8 304 -663
348 -771 32 -78 83 -139 136 -163 53 -24 139 -24 192 0 82 37 143 143 131 229
-2 21 -35 106 -72 187 -61 135 -67 153 -62 199 4 41 11 55 41 83 30 28 43 33
85 33 85 0 111 -34 212 -277 19 -44 46 -88 71 -113 144 -144 389 -36 388 170
-1 42 6 27 -269 635 -122 270 -224 500 -227 511 -4 14 37 111 125 295 73 151
134 290 137 309 24 146 -141 273 -276 214z m167 -97 c45 -49 51 -93 21 -155
l-23 -50 -114 54 c-63 30 -117 56 -119 59 -2 2 6 23 19 47 53 95 151 116 216
45z m-714 -91 c18 -7 44 -26 59 -42 31 -34 155 -310 164 -364 8 -48 -23 -119
-62 -147 -16 -11 -121 -62 -234 -113 -234 -106 -282 -117 -347 -80 -21 12 -45
31 -54 43 -22 30 -145 306 -153 344 -10 44 11 107 48 142 24 23 300 155 461
222 31 12 82 10 118 -5z m571 -121 l116 -54 -29 -63 c-16 -35 -61 -130 -100
-212 -39 -81 -71 -157 -71 -167 0 -10 97 -235 216 -499 119 -265 214 -483 213
-484 -17 -14 -283 -125 -288 -121 -3 4 -24 43 -46 88 -49 100 -95 138 -178
145 -96 8 -175 -45 -206 -137 -18 -56 -13 -102 24 -186 19 -43 31 -82 27 -86
-17 -17 -277 -128 -283 -121 -4 4 -103 221 -220 482 -116 261 -218 480 -225
486 -7 6 -112 39 -234 74 -121 35 -220 68 -220 74 0 33 65 246 75 246 6 0 83
-21 171 -46 123 -36 166 -52 189 -75 42 -39 95 -59 160 -59 48 0 81 11 245 85
104 46 216 98 249 114 90 46 140 123 140 221 1 35 17 80 73 198 39 83 75 152
79 152 3 0 59 -25 123 -55z m-1541 -501 c29 -5 38 -11 34 -23 -2 -9 -17 -63
-32 -121 -16 -58 -31 -109 -35 -113 -13 -14 -91 15 -121 45 -30 31 -45 82 -35
122 14 56 89 111 136 101 8 -2 32 -7 53 -11z m-1683 -673 c110 -28 230 -71
230 -82 0 -15 -43 -79 -111 -164 -154 -194 -507 -509 -551 -492 -7 2 -25 42
-40 88 -55 171 -62 209 -62 345 -1 126 0 132 29 189 35 68 87 110 162 131 67
19 236 12 343 -15z m495 -195 c450 -230 886 -579 1107 -886 72 -100 141 -240
164 -329 23 -90 16 -256 -14 -332 -25 -62 -94 -181 -108 -186 -5 -2 -94 93
-197 210 -103 117 -200 220 -215 229 -41 25 -104 32 -146 18 -76 -25 -136
-104 -136 -180 0 -75 27 -108 251 -305 118 -104 214 -193 214 -198 0 -13 -119
-83 -184 -108 -185 -69 -386 -34 -603 106 -338 219 -736 711 -979 1210 -33 66
-59 125 -59 130 0 6 14 16 31 24 141 62 584 505 655 654 14 30 22 36 38 31 12
-3 93 -43 181 -88z m3119 -205 c61 -117 -8 -243 -134 -243 -67 0 -114 30 -146
94 -14 28 -24 51 -22 53 6 6 273 125 280 125 4 0 14 -13 22 -29z m-639 -407
c-11 -77 -77 -134 -155 -134 -69 0 -124 40 -154 112 l-16 37 62 28 c34 15 99
44 143 64 l80 36 24 -49 c18 -39 22 -59 16 -94z m-1220 -49 c101 -26 175 -69
310 -183 72 -60 136 -116 144 -126 22 -26 26 -107 8 -143 -21 -40 -347 -258
-359 -240 -4 7 -8 30 -8 52 -1 151 -125 396 -297 590 -40 43 -43 50 -26 56 32
13 167 9 228 -6z m-547 -703 c12 -9 148 -161 302 -336 197 -225 280 -326 280
-342 0 -31 -33 -64 -65 -64 -13 0 -41 15 -62 33 -299 257 -626 554 -634 575
-41 106 89 203 179 134z m656 -261 c47 -63 119 -199 150 -283 48 -126 79 -275
100 -467 l4 -44 -81 7 c-174 14 -412 78 -549 147 -64 32 -195 116 -204 130 -2
5 15 18 38 30 24 12 69 39 100 60 l58 39 82 -73 c98 -87 115 -97 165 -97 80 0
141 71 130 152 -5 39 -16 56 -110 161 l-58 65 50 76 c27 42 55 92 61 111 6 19
15 35 20 35 5 0 24 -22 44 -49z m-1271 -399 c131 -84 237 -125 379 -146 l78
-11 -114 -170 c-74 -112 -122 -175 -140 -183 -39 -17 -107 -15 -138 6 -42 26
-235 266 -268 333 -17 32 -37 85 -45 116 -15 56 -21 207 -9 237 4 11 28 -3 97
-61 51 -42 123 -97 160 -121z"/>
<path d="M3310 4247 c-30 -13 -99 -45 -153 -71 -89 -43 -100 -51 -118 -89 -27
-60 -24 -80 26 -192 57 -125 86 -156 153 -163 44 -4 64 2 178 53 174 78 211
114 201 201 -6 55 -95 233 -128 257 -41 29 -96 31 -159 4z m123 -59 c25 -20
97 -182 97 -220 0 -21 -7 -41 -17 -50 -10 -8 -76 -41 -146 -72 -165 -74 -166
-74 -229 54 -51 103 -57 136 -30 169 21 25 246 129 283 130 14 1 33 -5 42 -11z"/>
<path d="M3547 3546 c-214 -77 -274 -339 -114 -499 111 -111 289 -116 407 -11
71 64 92 111 98 209 6 106 -18 165 -95 235 -81 74 -199 100 -296 66z m225 -91
c23 -17 56 -53 73 -80 25 -41 30 -58 30 -115 0 -57 -5 -74 -30 -115 -45 -73
-101 -108 -179 -113 -80 -5 -127 10 -179 57 -98 88 -104 235 -14 330 51 54
100 72 184 69 61 -3 78 -8 115 -33z"/>
<path d="M1183 2495 c-80 -22 -131 -52 -188 -109 -95 -95 -139 -229 -116 -354
25 -133 109 -245 231 -305 61 -30 71 -32 175 -32 101 0 115 2 170 29 78 38
163 124 200 201 37 77 46 202 21 288 -34 117 -135 224 -254 271 -62 24 -176
29 -239 11z m239 -82 c102 -46 189 -164 203 -277 15 -116 -50 -256 -148 -321
-67 -44 -161 -69 -230 -60 -116 14 -225 94 -278 203 -19 38 -24 63 -24 137 0
76 4 98 26 145 42 89 117 154 214 187 57 19 179 11 237 -14z"/>
<path d="M1233 2349 c-56 -11 -91 -30 -135 -76 -50 -51 -70 -104 -70 -179 1
-135 97 -239 232 -251 75 -7 147 17 197 66 59 57 78 103 78 191 0 64 -4 82
-27 121 -60 102 -164 150 -275 128z m141 -84 c57 -27 96 -94 96 -164 0 -68
-22 -114 -73 -155 -31 -25 -49 -31 -102 -34 -56 -4 -70 -1 -109 22 -47 28 -96
106 -96 155 0 151 147 241 284 176z"/>
<path d="M1425 4491 c-38 -10 -92 -28 -120 -39 -49 -19 -50 -19 -104 -1 -124
43 -255 34 -376 -25 -89 -44 -143 -90 -194 -167 -56 -83 -83 -173 -83 -277 -1
-83 -1 -83 -53 -162 -29 -44 -58 -100 -65 -125 -24 -85 4 -161 70 -187 42 -16
143 -11 230 13 76 20 83 21 118 6 64 -28 115 -37 202 -37 184 1 351 105 434
272 37 73 61 188 53 249 -4 34 0 45 49 108 134 172 155 296 63 364 -39 28
-137 32 -224 8z m193 -67 c33 -23 29 -77 -10 -153 -18 -34 -46 -78 -63 -98
l-30 -35 -30 63 c-17 36 -55 89 -91 127 l-61 64 26 10 c102 39 221 49 259 22z
m-459 -30 c137 -40 244 -141 288 -270 l16 -46 -50 -49 -49 -50 3 33 c9 79 -80
140 -152 105 -97 -46 -76 -188 31 -206 l36 -6 -71 -53 -71 -53 -34 35 c-29 31
-39 36 -81 36 -40 0 -52 -5 -82 -35 -32 -32 -35 -39 -31 -82 3 -27 8 -55 12
-64 5 -11 -8 -22 -53 -44 l-60 -28 -36 27 c-49 38 -109 120 -135 186 -43 109
-35 242 21 351 26 51 101 134 151 165 95 61 239 81 347 48z m131 -348 c6 -8
10 -25 8 -38 -2 -19 -9 -23 -38 -23 -29 0 -36 4 -38 23 -4 28 14 52 38 52 10
0 23 -7 30 -14z m170 -156 c-27 -123 -120 -240 -233 -293 -96 -46 -226 -56
-307 -25 -24 9 -23 11 30 38 30 16 65 29 78 30 31 0 79 26 92 49 5 11 60 58
122 105 62 47 138 108 168 135 63 57 70 51 50 -39z m-860 -132 c13 -28 48 -78
78 -109 29 -32 49 -60 44 -63 -21 -12 -142 -28 -174 -22 -50 9 -61 27 -56 86
4 44 61 160 78 160 3 0 16 -23 30 -52z m454 36 c25 -24 19 -38 -23 -62 -39
-22 -40 -22 -50 -3 -15 28 -14 38 9 61 24 24 43 25 64 4z"/>
<path d="M844 4272 c-119 -56 -117 -231 4 -284 81 -36 175 -1 208 79 57 135
-79 267 -212 205z m131 -77 c56 -56 18 -155 -60 -155 -48 0 -95 45 -95 90 0
76 102 119 155 65z"/>
<path d="M102 2417 c-9 -11 -7 -28 9 -75 18 -53 24 -62 45 -62 35 0 39 21 17
87 -20 60 -47 79 -71 50z"/>
<path d="M214 2115 c-8 -21 32 -112 123 -275 117 -211 374 -586 409 -597 7 -2
19 3 28 12 20 20 17 25 -69 140 -141 187 -271 396 -380 610 -47 92 -67 121
-83 123 -13 2 -25 -3 -28 -13z"/>
<path d="M4740 2054 c-145 -63 -175 -247 -56 -351 116 -103 295 -44 337 110
42 157 -131 306 -281 241z m176 -97 c57 -62 57 -132 0 -194 -28 -31 -40 -37
-87 -40 -42 -3 -61 0 -86 16 -88 55 -87 187 2 243 23 15 43 18 84 15 47 -3 59
-9 87 -40z"/>
<path d="M3873 1576 c-144 -35 -295 -155 -361 -286 -87 -174 -77 -377 27 -539
47 -72 150 -165 223 -200 84 -40 145 -53 248 -52 240 1 443 153 516 387 23 73
26 96 22 181 -6 110 -23 170 -76 257 -72 120 -200 214 -338 250 -73 19 -188
19 -261 2z m279 -77 c82 -27 153 -74 212 -140 l49 -54 -144 -5 c-86 -3 -153
-10 -166 -18 -70 -39 -72 -145 -3 -185 15 -10 47 -17 71 -17 50 0 79 -22 79
-59 0 -63 61 -101 159 -101 l60 0 -15 -42 c-55 -155 -203 -278 -374 -309 -149
-26 -304 24 -414 135 l-61 61 153 5 154 5 29 33 c40 45 40 99 0 144 -29 32
-31 33 -128 36 -101 4 -123 12 -123 43 0 35 28 49 96 49 59 0 68 3 95 29 23
24 29 38 29 74 0 89 -50 117 -212 117 -54 0 -98 3 -98 6 0 16 78 97 126 130
119 82 293 108 426 63z m-318 -285 c20 -20 20 -33 -1 -56 -12 -14 -31 -18 -77
-18 -72 0 -101 -16 -122 -66 -22 -53 -2 -108 51 -137 11 -6 63 -14 115 -17
l95 -5 0 -35 0 -35 -163 -3 -163 -2 -14 33 c-27 66 -38 164 -26 238 6 37 15
79 21 93 l10 26 129 0 c104 0 133 -3 145 -16z m625 -21 c7 -21 15 -75 18 -120
l6 -83 -71 0 c-62 0 -73 3 -86 22 -9 12 -16 33 -16 46 0 13 -13 36 -29 52 -22
23 -41 30 -90 36 -44 5 -64 12 -71 25 -13 23 -13 25 6 43 13 13 43 16 168 16
l153 0 12 -37z"/>
</g>
</svg>
