<?xml version="1.0" standalone="no"?>
<!DOCTYPE svg PUBLIC "-//W3C//DTD SVG 20010904//EN"
 "http://www.w3.org/TR/2001/REC-SVG-20010904/DTD/svg10.dtd">
<svg version="1.0" xmlns="http://www.w3.org/2000/svg"
 width="512.000000pt" height="512.000000pt" viewBox="0 0 512.000000 512.000000"
 preserveAspectRatio="xMidYMid meet">

<g transform="translate(0.000000,512.000000) scale(0.100000,-0.100000)"
fill="#fff" stroke="none">
<path d="M2617 5106 c-94 -34 -158 -124 -158 -223 0 -32 5 -71 11 -87 11 -30
10 -31 -378 -419 l-388 -388 -53 26 c-154 78 -341 46 -467 -79 -125 -126 -157
-313 -79 -467 l26 -53 -388 -388 c-326 -326 -391 -387 -408 -380 -11 4 -54 7
-96 7 -67 0 -81 -4 -125 -30 -30 -19 -60 -49 -79 -79 -26 -44 -30 -58 -30
-125 0 -65 4 -83 28 -124 110 -186 381 -152 447 57 11 35 9 94 -5 156 -5 22
20 51 221 250 125 124 223 216 219 205 -5 -11 -32 -90 -61 -175 -96 -278 -130
-514 -121 -824 13 -449 145 -866 392 -1235 l72 -109 -64 -64 c-76 -74 -97
-110 -88 -147 8 -32 356 -385 396 -402 16 -6 39 -9 51 -6 13 4 110 93 216 200
175 176 192 196 192 228 0 31 -17 51 -198 232 -236 236 -227 232 -326 137
l-63 -61 -59 88 c-163 245 -281 541 -335 843 -30 168 -37 463 -14 640 40 316
153 636 316 894 l52 84 46 -21 c37 -17 66 -21 151 -22 97 0 110 2 171 31 155
74 239 207 239 378 -1 44 -8 92 -20 126 -11 30 -19 58 -20 61 0 11 112 81 225
140 490 257 1077 318 1610 168 211 -60 440 -165 618 -283 l88 -59 -61 -63
c-95 -99 -99 -91 138 -327 180 -179 200 -197 232 -197 31 0 51 17 227 193 107
105 196 202 200 215 3 12 0 35 -6 51 -17 40 -370 388 -402 396 -37 9 -73 -12
-147 -88 l-64 -64 -111 74 c-204 136 -480 260 -708 318 -243 62 -404 79 -666
72 -283 -7 -549 -59 -778 -151 -49 -20 -90 -35 -91 -33 -2 2 97 103 220 226
l223 223 57 -13 c159 -35 298 78 297 243 0 132 -107 237 -241 237 -25 0 -62
-6 -83 -13z m138 -169 c57 -49 20 -147 -56 -147 -43 0 -79 39 -79 85 0 74 80
110 135 62z m-1209 -1052 c177 -53 234 -283 103 -414 -48 -48 -103 -71 -174
-71 -114 0 -209 69 -240 174 -19 63 -19 80 1 146 21 72 82 135 154 160 67 23
92 24 156 5z m3264 -120 l115 -115 -118 -118 -117 -117 -117 117 -118 118 115
115 c63 63 117 115 120 115 3 0 57 -52 120 -115z m-4505 -1290 c50 -49 15
-135 -55 -135 -67 0 -107 93 -60 140 29 29 84 27 115 -5z m1285 -2160 l-120
-120 -117 118 -118 117 120 120 120 120 117 -117 118 -118 -120 -120z"/>
<path d="M2050 3403 c-24 -9 -321 -306 -331 -332 -8 -20 58 -192 411 -1076
232 -579 426 -1060 433 -1068 7 -9 210 -92 452 -185 l440 -169 140 -274 c146
-286 163 -309 216 -296 14 4 294 277 667 649 683 685 667 665 624 718 -10 12
-139 83 -287 158 l-268 137 -169 440 c-93 242 -176 445 -185 452 -15 12 -2114
854 -2123 852 -3 0 -12 -3 -20 -6z m1045 -573 c539 -215 982 -396 985 -401 3
-5 75 -189 160 -409 l154 -401 -447 -446 -446 -447 -401 154 c-220 85 -404
157 -409 160 -5 3 -188 452 -406 998 l-398 994 22 21 21 22 516 -516 516 -516
-25 -44 c-53 -91 -72 -238 -43 -344 62 -234 295 -387 529 -347 199 35 354 190
389 389 40 234 -113 467 -346 529 -107 29 -254 11 -345 -43 l-44 -25 -515 515
-516 516 19 21 c11 12 26 19 35 17 8 -2 456 -181 995 -397z m359 -766 c64 -22
147 -100 177 -166 31 -71 32 -182 2 -249 -30 -66 -86 -124 -151 -156 -76 -37
-182 -39 -260 -4 -66 30 -144 113 -166 177 -18 54 -21 141 -6 196 24 86 119
183 204 207 50 15 149 12 200 -5z m1286 -683 c80 -40 148 -76 152 -80 4 -4
-235 -249 -532 -546 -296 -296 -541 -537 -543 -535 -3 3 -48 92 -102 199 l-97
194 443 443 442 442 46 -22 c25 -12 111 -55 191 -95z"/>
</g>
</svg>
