<?xml version="1.0" standalone="no"?>
<!DOCTYPE svg PUBLIC "-//W3C//DTD SVG 20010904//EN"
 "http://www.w3.org/TR/2001/REC-SVG-20010904/DTD/svg10.dtd">
<svg version="1.0" xmlns="http://www.w3.org/2000/svg"
 width="512.000000pt" height="512.000000pt" viewBox="0 0 512.000000 512.000000"
 preserveAspectRatio="xMidYMid meet">

<g transform="translate(0.000000,512.000000) scale(0.100000,-0.100000)"
fill="#000000" stroke="none">
<path d="M1370 5105 c-26 -32 13 -81 48 -59 34 22 22 74 -18 74 -10 0 -23 -7
-30 -15z"/>
<path d="M3130 4945 c-26 -32 13 -81 48 -59 34 22 22 74 -18 74 -10 0 -23 -7
-30 -15z"/>
<path d="M2572 4788 c-7 -7 -12 -40 -12 -79 l0 -68 -31 -3 c-64 -6 -64 -70 -1
-76 l31 -3 3 -71 c2 -55 7 -73 21 -82 12 -8 22 -8 35 0 13 9 18 27 20 82 l3
71 31 3 c63 6 63 70 -1 76 l-31 3 0 68 c0 68 -10 91 -40 91 -9 0 -21 -5 -28
-12z"/>
<path d="M962 4518 c-7 -7 -12 -40 -12 -79 l0 -68 -31 -3 c-64 -6 -64 -70 0
-76 l31 -3 0 -68 c0 -69 10 -91 42 -91 26 0 38 31 38 99 0 61 0 61 30 61 25 0
50 21 50 44 0 14 -34 36 -56 36 -23 0 -24 3 -24 64 0 81 -32 120 -68 84z"/>
<path d="M4374 4520 c-186 -16 -380 -87 -539 -198 -27 -20 -399 -383 -826
-809 l-775 -774 -46 20 c-164 70 -376 48 -578 -61 -150 -80 -370 -260 -370
-302 0 -32 15 -42 85 -56 127 -26 330 -108 351 -141 3 -6 -33 -50 -80 -98 -47
-49 -86 -94 -86 -100 0 -7 25 -39 57 -72 36 -38 50 -59 40 -59 -9 0 -24 -11
-33 -25 -36 -55 18 -156 163 -305 152 -158 268 -229 328 -202 14 7 29 21 33
32 7 18 13 15 62 -35 30 -30 61 -55 69 -55 9 0 55 39 104 88 l88 87 21 -25
c46 -57 108 -213 138 -350 25 -111 51 -109 156 11 198 227 288 410 301 614 6
98 -10 183 -49 258 l-20 40 795 796 c835 837 846 849 923 1016 51 110 75 213
81 340 8 176 -27 281 -110 330 -36 20 -150 48 -182 43 -5 0 -51 -4 -101 -8z
m207 -90 c81 -22 115 -107 106 -270 -3 -58 -15 -139 -27 -180 -30 -107 -99
-242 -171 -333 l-62 -78 -13 28 c-12 29 -554 573 -588 591 -17 8 -14 13 33 50
197 156 525 243 722 192z m-797 -292 c8 -34 567 -589 594 -591 18 -1 -213
-237 -1060 -1084 l-1082 -1082 -107 104 c-59 58 -114 105 -121 105 -20 0 -38
-21 -38 -44 0 -11 25 -45 55 -76 53 -53 54 -56 29 -58 -56 -4 -188 96 -305
231 -74 85 -110 148 -102 178 5 17 13 13 64 -36 31 -30 62 -55 68 -55 15 0 41
30 41 47 0 9 -47 64 -105 122 l-104 106 1077 1078 c592 592 1080 1077 1083
1077 4 0 9 -10 13 -22z m-1683 -1434 c30 -9 57 -19 61 -23 4 -3 -89 -103 -207
-221 l-214 -214 -23 21 c-13 12 -50 35 -83 51 -64 32 -235 92 -263 92 -22 1
69 85 165 151 196 135 407 189 564 143z m835 -821 c25 -77 25 -225 0 -308 -40
-132 -109 -253 -222 -389 l-58 -70 -8 30 c-50 170 -95 276 -144 333 l-27 33
214 214 c118 118 217 214 220 214 3 0 15 -26 25 -57z"/>
<path d="M4258 4368 c-43 -11 -129 -46 -190 -77 -106 -53 -113 -58 -113 -86 0
-44 29 -43 124 5 122 62 214 91 312 97 70 5 93 2 123 -12 69 -33 105 23 44 66
-46 33 -190 37 -300 7z"/>
<path d="M3488 3616 c-179 -64 -233 -299 -103 -444 109 -121 285 -124 402 -7
88 89 106 203 49 319 -47 96 -130 145 -246 145 -36 0 -82 -6 -102 -13z m157
-67 c52 -15 119 -82 135 -136 49 -164 -126 -308 -280 -230 -89 44 -131 150
-96 240 20 53 71 104 122 122 48 17 68 18 119 4z"/>
<path d="M3541 3463 c-51 -27 -61 -50 -33 -73 22 -18 26 -18 53 -5 26 14 32
14 59 0 28 -14 31 -14 50 5 50 50 -56 110 -129 73z"/>
<path d="M2935 3053 c-101 -36 -160 -103 -181 -203 -21 -102 10 -195 86 -264
57 -52 103 -69 180 -69 160 -1 280 116 280 273 0 192 -187 326 -365 263z m175
-85 c65 -34 102 -86 108 -152 10 -117 -49 -196 -161 -216 -118 -22 -229 70
-229 189 0 151 150 246 282 179z"/>
<path d="M2975 2900 c-46 -18 -58 -62 -23 -84 13 -8 23 -8 38 2 11 6 27 12 35
12 8 0 24 -6 35 -12 25 -16 54 -1 58 30 6 42 -86 76 -143 52z"/>
<path d="M2202 2027 c-193 -194 -352 -358 -352 -364 0 -15 28 -43 43 -43 18 0
717 703 717 721 0 19 -20 39 -40 39 -8 0 -174 -159 -368 -353z"/>
<path d="M170 3985 c-26 -32 13 -81 48 -59 34 22 22 74 -18 74 -10 0 -23 -7
-30 -15z"/>
<path d="M1737 3989 c-129 -31 -217 -140 -217 -269 0 -54 14 -100 46 -152 l23
-37 -21 -3 c-35 -5 -46 -33 -23 -58 17 -19 27 -21 65 -15 63 9 68 9 130 -5
150 -35 296 61 331 217 11 48 11 65 -4 120 -12 45 -14 70 -7 89 17 43 12 81
-12 98 -26 18 -58 5 -58 -24 0 -17 -5 -16 -57 10 -64 32 -139 43 -196 29z
m152 -95 c29 -15 55 -33 58 -40 11 -29 -178 -235 -252 -274 -31 -16 -46 -5
-74 54 -40 82 -16 188 54 242 66 50 137 56 214 18z m86 -260 c-19 -40 -38 -61
-69 -79 -38 -22 -136 -46 -136 -33 0 3 51 57 113 119 l112 114 3 -34 c2 -21
-6 -53 -23 -87z"/>
<path d="M412 2948 c-7 -7 -12 -40 -12 -79 l0 -68 -31 -3 c-64 -6 -64 -70 -1
-76 l31 -3 3 -71 c2 -55 7 -73 20 -82 13 -8 23 -8 35 0 14 9 19 27 21 82 l3
71 31 3 c63 6 63 70 -1 76 l-31 3 0 68 c0 68 -10 91 -40 91 -9 0 -21 -5 -28
-12z"/>
<path d="M4810 2545 c-26 -32 13 -81 48 -59 34 22 22 74 -18 74 -10 0 -23 -7
-30 -15z"/>
<path d="M3850 2225 c-26 -32 13 -81 48 -59 34 22 22 74 -18 74 -10 0 -23 -7
-30 -15z"/>
<path d="M810 1825 c-26 -32 13 -81 48 -59 34 22 22 74 -18 74 -10 0 -23 -7
-30 -15z"/>
<path d="M4465 1746 c-117 -29 -214 -110 -268 -224 -29 -61 -32 -76 -32 -162
0 -86 3 -101 32 -162 121 -256 445 -315 643 -118 155 156 155 404 1 558 -103
103 -239 142 -376 108z m226 -98 c200 -93 248 -357 93 -512 -141 -140 -380
-117 -487 47 -76 118 -77 236 0 353 84 129 253 177 394 112z"/>
<path d="M4635 1591 c-44 -20 -70 -60 -70 -112 0 -42 5 -53 33 -81 61 -62 161
-37 191 48 24 70 -22 139 -100 149 -19 3 -43 1 -54 -4z m75 -86 c26 -32 -13
-81 -47 -59 -35 22 -23 74 17 74 10 0 23 -7 30 -15z"/>
<path d="M4330 1425 c-26 -32 13 -81 48 -59 34 22 22 74 -18 74 -10 0 -23 -7
-30 -15z"/>
<path d="M4490 1185 c-26 -32 13 -81 48 -59 34 22 22 74 -18 74 -10 0 -23 -7
-30 -15z"/>
<path d="M1357 1568 c-112 -15 -191 -66 -286 -183 -160 -199 -336 -501 -396
-678 -50 -149 -41 -230 28 -281 94 -69 383 37 731 268 181 120 263 189 310
260 116 175 82 399 -81 532 -86 70 -189 98 -306 82z m155 -89 c85 -21 184
-122 209 -211 26 -98 4 -213 -54 -287 -97 -121 -529 -395 -734 -465 -180 -61
-229 -39 -203 93 37 183 325 672 474 804 85 75 184 97 308 66z"/>
<path d="M1333 1310 c-17 -10 -87 -85 -154 -165 -246 -297 -329 -460 -248
-489 21 -7 39 -2 90 24 125 63 504 362 535 422 36 69 11 161 -56 205 -43 30
-121 31 -167 3z m152 -103 c25 -59 2 -86 -225 -263 -98 -77 -199 -149 -248
-178 -24 -14 12 45 94 155 126 170 254 317 282 327 39 13 82 -5 97 -41z"/>
<path d="M3532 868 c-7 -7 -12 -40 -12 -79 l0 -68 -31 -3 c-64 -6 -64 -70 -1
-76 l31 -3 3 -71 c2 -55 7 -73 21 -82 12 -8 22 -8 35 0 13 9 18 27 20 82 l3
71 31 3 c63 6 63 70 -1 76 l-31 3 0 68 c0 68 -10 91 -40 91 -9 0 -21 -5 -28
-12z"/>
<path d="M1932 548 c-7 -7 -12 -40 -12 -79 l0 -68 -31 -3 c-64 -6 -64 -70 -1
-76 l31 -3 3 -71 c2 -55 7 -73 21 -82 12 -8 22 -8 35 0 13 9 18 27 20 82 l3
71 31 3 c63 6 63 70 -1 76 l-31 3 0 68 c0 68 -10 91 -40 91 -9 0 -21 -5 -28
-12z"/>
<path d="M2812 148 c-25 -25 -6 -68 30 -68 9 0 22 9 28 20 22 40 -26 80 -58
48z"/>
<path d="M4730 65 c-15 -18 -10 -45 13 -59 34 -22 73 27 47 59 -16 19 -44 19
-60 0z"/>
</g>
</svg>
