<?xml version="1.0" standalone="no"?>
<!DOCTYPE svg PUBLIC "-//W3C//DTD SVG 20010904//EN"
 "http://www.w3.org/TR/2001/REC-SVG-20010904/DTD/svg10.dtd">
<svg version="1.0" xmlns="http://www.w3.org/2000/svg"
 width="512.000000pt" height="512.000000pt" viewBox="0 0 512.000000 512.000000"
 preserveAspectRatio="xMidYMid meet">

<g transform="translate(0.000000,512.000000) scale(0.100000,-0.100000)"
fill="#ffffff" stroke="none">
<path d="M562 4609 c-74 -12 -188 -58 -254 -103 -76 -50 -178 -160 -221 -238
-20 -35 -46 -97 -59 -138 l-23 -75 0 -1570 0 -1570 23 -66 c58 -170 193 -294
363 -334 56 -13 349 -15 2372 -15 l2308 0 24 25 25 24 0 1734 0 1734 -21 27
-20 26 -2115 0 -2114 0 0 250 0 251 -25 24 c-22 23 -31 25 -117 24 -51 -1
-117 -5 -146 -10z m138 -1624 l0 -1485 -120 0 c-65 0 -143 -5 -172 -11 -71
-15 -163 -60 -216 -104 l-42 -37 0 1334 c0 1445 -2 1377 55 1494 82 168 268
290 448 293 l47 1 0 -1485z m4270 -700 l0 -1635 -2270 0 -2269 0 -56 21 c-73
27 -156 104 -192 177 -24 49 -27 69 -27 147 0 116 27 178 115 259 88 82 142
96 361 96 166 0 169 0 193 25 l25 24 0 1261 0 1260 2060 0 2060 0 0 -1635z"/>
<path d="M3540 3354 c-307 -277 -300 -270 -300 -301 0 -46 25 -73 68 -73 34 0
53 14 205 150 192 173 183 174 142 -24 -142 -702 -693 -1253 -1395 -1396 -58
-12 -145 -24 -195 -27 l-90 -5 -24 57 c-53 125 -167 198 -311 199 -66 1 -84
-3 -142 -32 -121 -59 -189 -168 -189 -301 0 -107 34 -186 111 -255 66 -59 121
-79 220 -80 77 -1 92 2 152 32 78 38 120 82 160 168 l28 61 95 6 c131 9 318
48 460 97 635 219 1115 757 1258 1411 14 63 28 138 32 167 4 28 10 52 13 51 4
0 74 -75 155 -165 122 -135 153 -164 176 -164 55 0 94 56 70 101 -6 11 -100
120 -210 242 -109 122 -206 230 -214 240 -9 10 -29 17 -47 17 -28 -1 -61 -26
-228 -176z m-1847 -1575 c43 -12 101 -59 123 -100 24 -47 21 -140 -5 -183 -52
-84 -160 -117 -246 -76 -122 59 -150 215 -55 310 53 53 112 69 183 49z"/>
<path d="M1819 3307 c-25 -19 -41 -56 -33 -80 3 -12 58 -74 120 -137 l114
-116 -115 -114 c-99 -99 -115 -119 -115 -147 0 -20 8 -40 22 -53 42 -39 63
-28 190 97 l118 117 118 -117 c116 -114 136 -126 177 -111 22 9 48 62 41 88
-3 11 -55 70 -115 131 l-111 109 115 117 c98 98 115 121 115 147 0 42 -31 72
-73 72 -28 0 -47 -15 -147 -115 l-114 -115 -122 120 c-124 123 -147 136 -185
107z"/>
<path d="M3681 1929 c-127 -25 -252 -121 -309 -239 -109 -225 -20 -486 205
-597 65 -32 86 -37 162 -41 222 -11 400 120 456 333 81 314 -195 607 -514 544z
m216 -165 c60 -29 117 -88 146 -153 62 -139 -6 -311 -153 -386 -52 -27 -156
-31 -221 -10 -72 24 -159 110 -182 179 -46 136 4 282 123 353 96 58 190 64
287 17z"/>
</g>
</svg>
