<?xml version="1.0" encoding="UTF-8"?>
<!DOCTYPE svg PUBLIC "-//W3C//DTD SVG 1.1//EN" "http://www.w3.org/Graphics/SVG/1.1/DTD/svg11.dtd">
<!-- Creator: CorelDRAW 2018 (64-Bit) -->
<svg xmlns="http://www.w3.org/2000/svg" xml:space="preserve" width="217.178mm" height="70.7716mm" version="1.1" style="shape-rendering:geometricPrecision; text-rendering:geometricPrecision; image-rendering:optimizeQuality; fill-rule:evenodd; clip-rule:evenodd"
viewBox="0 0 21444.27 6988.02"
 xmlns:xlink="http://www.w3.org/1999/xlink">
 <defs>
  <style type="text/css">
   <![CDATA[
    .fil2 {fill:none;fill-rule:nonzero}
    .fil3 {fill:#2F2C2D}
    .fil1 {fill:#8DC04B;fill-rule:nonzero}
    .fil4 {fill:#2F2C2D;fill-rule:nonzero}
    .fil0 {fill:#2F2C2D;fill-rule:nonzero}
   ]]>
  </style>
 </defs>
 <g id="Слой_x0020_1">
  <metadata id="CorelCorpID_0Corel-Layer"/>
  <g id="_2623101523152">
   <polygon class="fil0" points="2512.66,161.63 1212.16,2534.35 493.14,161.63 836.43,161.63 1309.81,1743.49 2147.23,161.63 "/>
   <path class="fil0" d="M3012.14 0.01l-1263.4 2431.45 368.38 0 278.11 -533.65 886.23 0 165.75 533.65 353.61 0 -788.59 -2431.45 -0.09 0zm-70.97 799.64l245.63 807.06 -645.09 0 399.46 -807.06z"/>
   <path class="fil0" d="M5406.35 451.23l-226.42 214.66c-107.42,-156.79 -230.86,-235.27 -369.84,-235.27 -100.59,0 -183.97,30.99 -250,92.68 -66.19,61.8 -99.09,139.12 -99.09,232.32 0,74.48 22.62,138.56 68.04,192.53 22.7,25.54 55.94,54.4 99.81,86.68 43.92,32.36 98.85,68.13 165.01,107.33 196.3,113.75 327.37,216.68 393.53,308.77 67.02,93.11 100.59,215.11 100.59,366.02 0,195.99 -65.16,354.81 -195.26,476.23 -128.24,121.6 -297.42,182.3 -507.51,182.3 -169.62,0 -313.12,-36.2 -430.5,-108.8 -59.24,-36.2 -114.44,-83.51 -165.77,-141.86 -51.27,-58.31 -100.53,-129.03 -147.91,-212.32l257.38 -173.46c70.13,122.43 138.56,206.68 205.72,252.8 67.02,46.12 154.34,69.14 261.84,69.14 119.43,0 212.86,-31.43 280.32,-94.08 67.6,-62.82 101.39,-151.98 101.39,-267.66 0,-79.39 -24.71,-146.5 -73.94,-201.38 -24.68,-28.45 -61.45,-60.27 -110.26,-95.43 -48.83,-35.37 -110.71,-75.04 -185.64,-119.22 -171.69,-100.92 -291.48,-196.97 -359.46,-288.13 -65.09,-91.11 -97.68,-205.25 -97.68,-342.53 0,-183.14 64.04,-335.12 192.32,-455.68 128.14,-121.59 289.94,-182.26 485.26,-182.26 127.24,0 235.74,25.5 325.51,76.4 91.7,51 185.94,137.79 282.59,260.22z"/>
   <polygon class="fil0" points="6157.05,161.63 5875.95,2431.42 5537.2,2431.42 5818.25,161.63 "/>
   <polygon class="fil0" points="6895.55,161.63 6654.41,2118.32 7300.91,2118.32 7262.44,2431.42 6277.12,2431.42 6558.17,161.63 "/>
   <polygon class="fil0" points="8175.97,161.63 7894.92,2431.42 7556.16,2431.42 7837.21,161.63 "/>
   <polygon class="fil0" points="9753.85,161.63 9715.35,474.75 8876.53,474.75 8804,1062.77 9642.96,1062.77 9607.42,1353.88 8768.46,1353.88 8673.79,2118.32 9512.71,2118.32 9472.77,2431.42 8296.63,2431.42 8577.68,161.63 "/>
   <polygon class="fil0" points="11949.9,161.63 10649.54,2534.35 9930.5,161.63 10273.67,161.63 10747.22,1743.49 11584.6,161.63 "/>
   <path class="fil0" d="M1224.53 4217.75l920.73 0c-22.84,259.52 -85.5,472.18 -187.78,638.02 -192.65,312.87 -478.65,469.26 -858.11,469.26 -319.79,0 -582.95,-107.13 -789.53,-321.3 -206.55,-214.06 -309.84,-487.4 -309.84,-820.01 0,-180.57 35.23,-356.76 105.83,-528.45 69.39,-167.84 166.8,-307.89 291.87,-420.45 209.56,-190.45 469.23,-285.59 779.24,-285.59 379.33,0 693.61,153.41 942.94,460.26l-222.05 225.04c-187.57,-244.69 -429.92,-367.08 -726.87,-367.08 -245.36,0 -444.42,84.39 -597.41,253.14 -153.98,170.67 -230.89,389.24 -230.89,655.68 0,244.82 71.94,444.69 215.96,599.57 143.93,154.91 331.28,232.3 561.61,232.3 162.94,0 301.93,-44.35 417.14,-133.14 114.24,-88.84 187.69,-210.13 220.51,-364.14l-570.58 0 37.24 -293.11z"/>
   <path class="fil0" d="M2770.9 3310.39l-89.36 734.14 156.41 0c115.22,0 201.04,-10.84 257.75,-32.58 60.51,-21.64 111.24,-58.61 151.84,-110.97 55.71,-73 83.55,-158.85 83.55,-257.51 0,-115.48 -33.59,-199.94 -100.66,-253.17 -67.05,-53.33 -172.55,-79.91 -316.48,-79.91l-143.06 0zm324.81 1006.52l514.41 857.76 -285.78 125.12 -556.4 -959.17 -123.72 0 -116.22 939.97 -341.03 0 283.03 -2285.45 451.39 0c146.91,0 263.65,13.26 350.07,39.84 85.47,24.78 159.8,70.13 223.46,136.22 120.18,122.39 180.16,280.38 180.16,473.71 0,354.32 -193.1,578.37 -579.37,672.01z"/>
   <polygon class="fil0" points="10748.15,2995.08 9438.63,5384.23 8714.67,2995.08 9060.3,2995.08 9536.99,4587.8 10380.31,2995.08 "/>
   <polygon class="fil0" points="12068.06,2995.08 12029.25,3310.37 11184.65,3310.37 11111.62,3902.5 11956.35,3902.5 11920.58,4195.58 11075.96,4195.58 10980.47,4965.33 11825.24,4965.33 11785.03,5280.58 10600.68,5280.58 10883.73,2995.08 "/>
   <path class="fil0" d="M8477.79 4090.47c0,-249.63 -74.54,-449.5 -223.44,-599.43 -149.04,-149.08 -349.11,-223.62 -600.41,-223.62 -252.29,0 -464.3,83.96 -636.07,251.7 -169.88,167.75 -254.74,377.4 -254.74,629.09 0,248.76 78.97,454.47 236.84,617.27 157.95,161.81 357.46,242.69 598.84,242.69 251.32,0 460.45,-87.24 627.25,-261.89 167.81,-172.68 251.73,-391.36 251.73,-655.81zm342.61 2.97c0,260.52 -69.49,496.86 -208.49,709.02 -110.23,166.74 -254.27,295.51 -432.17,386.44 -177.72,90.63 -374.38,136.09 -589.79,136.09 -344.73,0 -625.79,-109.01 -843.28,-327.11 -217.51,-219.13 -326.21,-502.33 -326.21,-849.67 0,-346.44 115.21,-632.6 345.64,-858.52 231.33,-226.99 523.29,-340.53 875.92,-340.53 352.62,0 637.18,105.19 853.58,315.28 216.63,209.32 324.8,485.53 324.8,828.99z"/>
   <path class="fil0" d="M12547.41 4983.62l34.1 0c39.67,0 71.83,-13.22 71.83,-45.18 0,-28.11 -20.8,-46.88 -66.23,-46.88 -18.9,0 -32.15,1.94 -39.7,3.7l0 88.36zm-1.91 174.69l-71.79 0 0 -308.1c28.32,-5.68 68.12,-9.35 119.12,-9.35 58.6,0 85.15,9.35 107.82,22.4 17,13.22 30.25,37.67 30.25,67.73 0,33.86 -26.54,60.1 -64.31,71.4l0 3.77c30.25,11.32 47.22,33.87 56.64,75.21 9.62,46.91 15.19,65.68 22.74,76.94l-77.44 0c-9.59,-11.26 -15.2,-39.41 -24.65,-75.04 -5.75,-33.86 -24.62,-48.96 -64.32,-48.96l-34.07 0 0 124zm-191.02 -161.5c0,137.15 102.23,246.12 242.05,246.12 136.32,0 236.47,-108.97 236.47,-244.25 0,-137.15 -100.15,-248.11 -238.24,-248.11 -138.06,0 -240.28,110.96 -240.28,246.25zm558 0c0,174.72 -138.08,311.87 -317.72,311.87 -177.9,0 -319.63,-137.15 -319.63,-311.87 0,-171.08 141.73,-308.27 319.63,-308.27 179.64,0 317.72,137.19 317.72,308.27z"/>
   <path class="fil1" d="M7713.2 3939.06c-67.42,50.78 -111.81,114.84 -127.4,173.28l-757.2 493.54 -2798.6 2109.83c-57.17,43.08 -60.88,133.99 -8.19,203.02 52.7,68.99 141.8,90.03 198.93,46.84l2798.64 -2109.83 682.42 -591.52c60.81,0.83 134.78,-24.52 202.21,-75.31 115.35,-87.03 166.28,-213.36 113.58,-282.53 -52.7,-68.99 -189.02,-54.37 -304.4,32.67z"/>
   <path class="fil1" d="M4267.56 5098.62c-4.18,-3.18 -8.27,-6.38 -12.42,-9.62 -13.66,-10.68 -27.14,-21.77 -40.39,-33.2 -4.48,-3.87 -9.02,-7.67 -13.47,-11.62 -16.77,-14.89 -33.27,-30.21 -49.29,-46.32 -14.79,-14.89 -28.98,-30.16 -42.77,-45.65l-1151.66 510c-65.52,29.03 -89.97,116.79 -54.51,195.9 35.51,79.11 117.29,119.71 182.98,90.59l1296.26 -574.06 0 -0.03c-39.77,-22.71 -77.94,-48.13 -114.72,-76.01z"/>
   <path class="fil1" d="M7484.82 3629.01c-35.5,-79.11 -171.41,-95.74 -303.79,-37.1 -77.21,34.12 -135.22,86.56 -163.83,139.83l-793.37 288.6c1.11,24.04 1.84,48.35 1.84,73.1 0,95.74 -9.56,188.22 -28.36,277.45l97.71 -43.28 800.25 -421.72c58.94,14.62 136.91,6.75 214.09,-27.52 132.38,-58.63 210.93,-170.24 175.46,-249.36z"/>
   <path class="fil1" d="M4445.11 4803.47l0 0c12.65,11.42 25.57,22.31 38.7,32.73 0.53,0.43 1.04,0.86 1.61,1.29 53.47,42.28 110.96,76.72 172.58,103.26 0.2,0.1 0.39,0.2 0.6,0.31 46.42,19.97 95.14,35.46 146.18,46.49l-0.04 0 0.04 0.03 965.11 -427.43c64.15,-115.84 100.95,-246.62 110.51,-392.26l-1435.28 635.57z"/>
   <path class="fil0" d="M4658 4940.77c0.2,0.1 0.39,0.2 0.6,0.31 -0.21,-0.11 -0.4,-0.21 -0.6,-0.31z"/>
   <path class="fil0" d="M4382.28 5174.64c-39.74,-22.74 -77.94,-48.16 -114.72,-76.01 36.78,27.89 74.94,53.27 114.72,76.01z"/>
   <path class="fil1" d="M6223.82 4020.32l-57.11 20.77 -286.33 126.8c-9.53,145.64 -46.32,276.42 -110.47,392.26l427.42 -189.28c18.77,-89.23 28.35,-181.67 28.35,-277.45 0,-24.74 -0.73,-49.02 -1.86,-73.1z"/>
   <path class="fil0" d="M4255.16 5088.99c-13.7,-10.64 -27.15,-21.77 -40.4,-33.19 13.25,11.41 26.71,22.5 40.4,33.19z"/>
   <path class="fil0" d="M4483.82 4836.22c0.52,0.43 1.07,0.84 1.57,1.27 -0.54,-0.43 -1.05,-0.84 -1.57,-1.27z"/>
   <path class="fil0" d="M4201.26 5044.19c-16.73,-14.9 -33.26,-30.22 -49.29,-46.32 -14.78,-14.9 -28.98,-30.17 -42.73,-45.66l335.89 -148.74 -335.89 148.74c13.75,15.49 27.95,30.76 42.73,45.66 16.04,16.09 32.56,31.42 49.29,46.32z"/>
   <polygon class="fil0" points="4486.26,5128.6 4804.79,4987.56 4804.76,4987.53 "/>
   <line class="fil2" x1="4382.28" y1="5174.67" x2="4382.28" y2= "5174.67" />
   <polygon class="fil0" points="4382.28,5174.67 4382.28,5174.67 4486.27,5128.59 "/>
   <path class="fil0" d="M4267.56 5098.62c-4.18,-3.18 -8.27,-6.38 -12.42,-9.62 4.15,3.24 8.24,6.44 12.42,9.62z"/>
   <path class="fil0" d="M4485.4 4837.49c53.5,42.32 111,76.75 172.58,103.29 -61.57,-26.54 -119.11,-60.97 -172.58,-103.29z"/>
   <path class="fil0" d="M4804.78 4987.54c-51.04,-11.03 -99.76,-26.52 -146.18,-46.49 46.42,19.97 95.11,35.46 146.14,46.49l0.04 0z"/>
   <line class="fil2" x1="4382.28" y1="5174.64" x2="4382.28" y2= "5174.68" />
   <path class="fil0" d="M4214.74 5055.79c-4.48,-3.87 -9.06,-7.65 -13.47,-11.61 4.44,3.96 8.99,7.74 13.47,11.61z"/>
   <path class="fil0" d="M4445.12 4803.47l0 0c12.63,11.42 25.54,22.31 38.71,32.73 -13.16,-10.43 -26.08,-21.31 -38.71,-32.73z"/>
   <path class="fil0" d="M4405.26 4765.48c-157.86,-162.79 -236.83,-368.51 -236.83,-617.24 0,-251.73 84.83,-461.41 254.73,-629.13 171.79,-167.74 383.74,-251.7 636.09,-251.7 251.32,0 451.36,74.51 600.41,223.62 148.9,149.92 223.44,349.85 223.44,599.44 0,26.31 -1.07,52.03 -2.74,77.4l286.33 -126.76 57.14 -20.77c-14.5,-309.75 -121.93,-561.67 -322.94,-755.91 -216.4,-210.11 -500.96,-315.27 -853.57,-315.27 -352.62,0 -644.59,113.51 -875.92,340.52 -230.42,225.93 -345.67,512.08 -345.67,858.56 0,323.7 94.53,591.62 283.48,803.98l335.9 -148.73c-13.53,-12.23 -26.89,-24.75 -39.85,-38.02z"/>
   <path class="fil0" d="M5631.36 4746.27c-166.8,174.63 -375.92,261.92 -627.26,261.92 -69.99,0 -136.38,-7.02 -199.33,-20.61l-318.53 141 -103.95 46.08c175.16,100.11 379.43,150.31 613,150.31 215.39,0 412.01,-45.42 589.75,-136.09 177.86,-90.93 321.93,-219.67 432.17,-386.41 87.89,-134.21 147.8,-278.11 180.1,-431.59l-427.43 189.28c-37.1,67 -83.16,129.11 -138.52,186.12z"/>
   <path class="fil0" d="M4658.6 4941.07c-0.2,-0.1 -0.39,-0.21 -0.6,-0.3 -61.57,-26.55 -119.11,-60.98 -172.62,-103.3 -0.5,-0.39 -1.04,-0.83 -1.56,-1.26 -13.13,-10.43 -26.06,-21.31 -38.71,-32.72l-335.9 148.74c13.76,15.48 27.95,30.76 42.74,45.65 16.07,16.09 32.56,31.43 49.29,46.32 4.44,3.94 8.99,7.71 13.47,11.62 13.29,11.38 26.74,22.5 40.43,33.19 4.11,3.21 8.24,6.45 12.42,9.62 36.77,27.86 74.94,53.27 114.72,76.02l0 0.03 103.95 -46.08 318.5 -141.03c-51.04,-11.02 -99.72,-26.52 -146.15,-46.49z"/>
  </g>
  <polygon class="fil3" points="13898.86,69.12 14057.78,69.12 14057.78,4812.32 13898.86,4812.32 "/>
  <path class="fil1" d="M16397.69 1975.9l-135.34 177.49c-39.13,-51.89 -79.4,-83.47 -120.32,-94.74 -41.44,-12.03 -73.71,-18.04 -97.81,-18.04 -46.28,0 -82.67,8.65 -109.73,25.53 -26.33,16.18 -45.11,36.09 -57.17,60.17 -11.34,23.33 -16.53,46.24 -16.53,69.21 0,16.14 2.96,31.57 9.01,46.57 6,14.33 16.9,28.59 33.07,43.64 15.82,14.29 36.1,26.68 60.14,37.57 24.81,10.17 57.96,22.54 99.23,37.61 51.91,17.31 101.51,36.09 148.92,57.12 47,20.34 87.27,45.91 120.33,76.69 30.75,26.35 57.46,62.42 79.69,108.28 22.88,46.27 34.58,103.03 34.58,169.98 0,87.18 -19.56,163.87 -58.7,230.08 -38.32,65.42 -92.47,116.52 -162.4,153.38 -69.17,36.09 -150.01,54.14 -242.04,54.14 -81.19,0 -151.95,-14.31 -212.06,-42.13 -60.2,-27.79 -110.51,-61.63 -150.43,-100.77 -40.21,-39.08 -72.19,-75.17 -96.23,-108.28l169.99 -162.41c31.9,65.44 74.42,111.31 127.76,138.38 54.15,26.31 104.09,39.08 150.37,39.08 59.04,0 108.27,-16.51 147.39,-49.62 39.14,-33.11 58.7,-77.43 58.7,-133.82 0,-45.87 -17.33,-85.73 -51.11,-118.81 -26.42,-22.94 -57.97,-41.33 -94.78,-55.68 -36.09,-15 -73.33,-28.93 -111.31,-42.06 -35.3,-12.06 -72.19,-27.07 -111.31,-45.1 -39.04,-18.04 -75.93,-41.37 -109.71,-70.73 -21.08,-18.77 -44.4,-48.11 -69.17,-87.19 -25.25,-39.12 -37.67,-92.12 -37.67,-159.42 0,-65.03 15.09,-127.85 45.12,-187.96 30.1,-60.17 76.73,-108.67 139.9,-145.89 63.14,-37.96 143.64,-57.13 242.09,-57.13 27.85,0 63.16,3.77 105.24,10.5 42.15,6.04 86.49,20.34 133.9,42.13 47,22.18 93.26,56.39 138.37,102.23z"/>
  <polygon class="fil4" points="16931.41,1851.11 16931.41,2365.42 17493.87,2365.42 17493.87,1851.11 17752.5,1851.11 17752.5,3180.47 17493.87,3180.47 17493.87,2588.01 16931.41,2588.01 16931.41,3180.47 16672.78,3180.47 16672.78,1851.11 "/>
  <path class="fil4" d="M18701.01 2974.47c87.27,0 163.91,-19.56 230.05,-58.64 66.2,-39.08 118.08,-93.22 156.42,-162.43 38.04,-69.18 57.17,-148.1 57.17,-237.57 0,-90.24 -19.13,-169.98 -57.17,-239.12 -38.34,-69.18 -90.23,-123.32 -156.42,-162.4 -66.14,-39.14 -142.78,-58.66 -230.05,-58.66 -86.48,0 -162.43,19.52 -228.53,58.66 -66.2,39.08 -118.46,93.22 -156.43,162.4 -38.4,69.14 -57.17,148.88 -57.17,239.12 0,89.47 18.77,168.39 57.17,237.57 37.98,69.21 90.24,123.35 156.43,162.43 66.11,39.08 142.06,58.64 228.53,58.64zm0 -1153.42c140.24,0 263.54,30.06 369.94,90.24 107.11,59.38 190.27,140.98 249.67,245.08 60.14,104.57 90.24,224.1 90.24,359.45 0,136.47 -30.1,256.74 -90.24,360.92 -59.39,104.5 -142.55,186.1 -249.67,245.08 -106.4,59.06 -229.7,88.77 -369.94,88.77 -139.47,0 -262.4,-29.71 -368.43,-88.77 -106.4,-58.99 -190.27,-140.59 -251.13,-245.08 -60.13,-104.17 -90.24,-224.45 -90.24,-360.92 0,-135.35 30.11,-254.89 90.24,-359.45 60.85,-104.1 144.72,-185.7 251.13,-245.08 106.03,-60.18 228.96,-90.24 368.43,-90.24z"/>
  <polygon class="fil4" points="20465.23,2336.82 20160.05,3180.47 19964.5,3180.47 19502.81,1851.11 19778.06,1851.11 20074.3,2756.39 20399.12,1839.1 20543.47,1839.1 20850.26,2756.39 21169.02,1851.11 21444.27,1851.11 20952.48,3180.47 20757.01,3180.47 "/>
 </g>
</svg>
