<svg xmlns="http://www.w3.org/2000/svg" version="1.1" xmlns:xlink="http://www.w3.org/1999/xlink" width="429" height="340"><svg width="429" height="340" viewBox="0 0 429 340" fill="none" xmlns="http://www.w3.org/2000/svg">
<path d="M178 189C178 205.941 173.399 222.715 164.455 238.367C155.509 254.018 142.399 268.238 125.866 280.217C109.337 292.196 89.7147 301.698 68.1176 308.181C46.5226 314.664 23.3751 318 0 318V189H178Z" fill="#355CC1"></path>
<path d="M-7.59925e-06 189C-7.59925e-06 172.059 4.60054 155.285 13.5451 139.633C22.4907 123.982 35.6014 109.762 52.1336 97.7831C68.6627 85.8043 88.2853 76.3022 109.882 69.8192C131.477 63.3363 154.625 60 178 60V189H-7.59925e-06Z" fill="#355CC1"></path>
<path d="M429 99.5C429 154.452 383.107 199 326.499 199H224V99.5C224 44.5478 269.891 0 326.499 0C383.107 0 429 44.5478 429 99.5Z" fill="#FF7917"></path>
<path d="M178 340C178 328.181 180.457 316.478 185.231 305.559C190.006 294.639 197.003 284.718 205.825 276.36C214.646 268.003 225.119 261.374 236.645 256.851C248.171 252.328 260.524 250 273 250V340H178Z" fill="#442781"></path>
<path d="M262 130V69H271V130H262Z" fill="white"></path>
<path d="M352 130V69H365.081V130H352ZM354.255 130V120.189H385.379C389.288 120.189 392.266 119.193 394.31 117.203C396.415 115.155 397.468 112.112 397.468 108.074C397.468 103.979 396.415 100.936 394.31 98.9455C392.266 96.8979 389.288 95.8741 385.379 95.8741H355.157V86.0629H385.379C393.438 86.0629 399.723 87.9399 404.234 91.6937C408.745 95.4476 411 100.908 411 108.074C411 115.184 408.745 120.615 404.234 124.369C399.723 128.123 393.438 130 385.379 130H354.255Z" fill="white"></path>
<path d="M294.116 130C289.228 130 285.487 128.832 282.892 126.497C280.297 124.162 279 120.83 279 116.501C279 112.229 280.297 108.926 282.892 106.59C285.487 104.255 289.228 103.087 294.116 103.087H328.875V101.037C328.875 97.5625 327.065 95.8252 323.444 95.8252H285.065V86H326.884C332.375 86 336.267 87.1961 338.56 89.5884C340.853 91.9236 342 95.2272 342 99.499V130H294.116ZM296.47 120.175H328.875V112.913H296.47C295.323 112.913 294.418 113.254 293.754 113.938C293.151 114.564 292.849 115.419 292.849 116.501C292.849 117.583 293.151 118.466 293.754 119.15C294.418 119.833 295.323 120.175 296.47 120.175Z" fill="white"></path>
<path d="M56.0695 244L118.022 169.376H38.9175V152.736H142.598V169.504L80.7735 244H56.0695Z" fill="white"></path>
</svg><style>@media (prefers-color-scheme: light) { :root { filter: none; } }
@media (prefers-color-scheme: dark) { :root { filter: none; } }
</style></svg>