<svg width="225" height="62" viewBox="0 0 225 62" fill="none" xmlns="http://www.w3.org/2000/svg">
<mask id="mask0_0_1" style="mask-type:alpha" maskUnits="userSpaceOnUse" x="-3" y="1" width="171" height="95">
<rect x="-3" y="1" width="171" height="34" fill="#D9D9D9"/>
<rect x="-3" y="46" width="171" height="50" fill="#D9D9D9"/>
</mask>
<g mask="url(#mask0_0_1)">
<path d="M10.9185 62L50.3556 12.122H0V1H66V13L26.6444 62H10.9185Z" fill="#414040"/>
<path d="M50.3556 12.9084H0V1H66V13L50.3556 12.9084Z" fill="#414040"/>
<mask id="mask1_0_1" style="mask-type:alpha" maskUnits="userSpaceOnUse" x="113" y="1" width="55" height="60">
<path d="M113 61V1H125.194V61H113ZM115.102 61V51.3497H144.116C147.76 51.3497 150.536 50.3706 152.442 48.4126C154.404 46.3986 155.385 43.4056 155.385 39.4336C155.385 35.4056 154.404 32.4126 152.442 30.4545C150.536 28.4406 147.76 27.4336 144.116 27.4336H139.152V17.7832H144.116C151.629 17.7832 157.488 19.6294 161.693 23.3217C165.898 27.014 168 32.3846 168 39.4336C168 46.4266 165.898 51.7692 161.693 55.4615C157.488 59.1538 151.629 61 144.116 61H115.102Z" fill="white"/>
</mask>
<g mask="url(#mask1_0_1)">
<rect x="100" y="-1" width="83" height="76" fill="#414040"/>
</g>
<path d="M111 40.5417V19L98.8058 19L98.8058 40.5417H111ZM98.8058 62V52.3981H79.8838C76.2395 52.3981 73.4643 51.4239 71.5581 49.4757C69.5958 47.4718 68.6147 44.4938 68.6147 40.5417C68.6147 36.534 69.5958 33.556 71.5581 31.6078C73.4643 29.6039 76.2395 28.6019 79.8838 28.6019H108.057V19H79.8838C72.371 19 66.5122 20.8369 62.3073 24.5107C58.1024 28.1845 56 33.5282 56 40.5417C56 47.4997 58.1024 52.8155 62.3073 56.4893C66.5122 60.1631 72.371 62 79.8838 62H98.8058Z" fill="#414040"/>
</g>
<path d="M166.799 13V9.568H170.639V13H166.799ZM173.453 18.4V0.639999H182.333C184.477 0.639999 186.149 1.168 187.349 2.224C188.549 3.28 189.149 4.808 189.149 6.808C189.149 8.824 188.549 10.36 187.349 11.416C186.149 12.472 184.477 13 182.333 13H176.933V18.4H173.453ZM182.333 3.4H176.933V10.24H182.333C183.373 10.24 184.165 9.96 184.709 9.4C185.269 8.824 185.549 7.96 185.549 6.808C185.549 5.672 185.269 4.824 184.709 4.264C184.165 3.688 183.373 3.4 182.333 3.4ZM191.312 13V0.639999H200.768C202.16 0.639999 203.184 0.991999 203.84 1.696C204.496 2.384 204.824 3.296 204.824 4.432V7H201.296V4.864C201.296 3.904 200.816 3.424 199.856 3.424H194.84V13H191.312ZM213.539 13.12C211.395 13.12 209.723 12.592 208.523 11.536C207.323 10.464 206.723 8.896 206.723 6.832C206.723 4.752 207.323 3.184 208.523 2.128C209.723 1.056 211.395 0.519999 213.539 0.519999H217.979C220.123 0.519999 221.795 1.056 222.995 2.128C224.195 3.184 224.795 4.752 224.795 6.832C224.795 8.896 224.195 10.464 222.995 11.536C221.795 12.592 220.123 13.12 217.979 13.12H213.539ZM213.539 10.36H217.979C219.019 10.36 219.811 10.072 220.355 9.496C220.915 8.92 221.195 8.032 221.195 6.832C221.195 5.616 220.915 4.72 220.355 4.144C219.811 3.568 219.019 3.28 217.979 3.28H213.539C212.499 3.28 211.699 3.568 211.139 4.144C210.595 4.72 210.323 5.616 210.323 6.832C210.323 8.032 210.595 8.92 211.139 9.496C211.699 10.072 212.499 10.36 213.539 10.36Z" fill="#414040"/>
</svg>
