<svg width="142" height="69" viewBox="0 0 142 69" fill="none" xmlns="http://www.w3.org/2000/svg">
<path d="M14.864 68.448L61.328 12.48H2V0H79.76V12.576L33.392 68.448H14.864Z" fill="white" fill-opacity="0.3"/>
<path d="M67.7187 50.445V34H71.0537V50.445H67.7187ZM68.2937 50.445V47.8H76.2287C77.2254 47.8 77.9844 47.5317 78.5057 46.995C79.0424 46.443 79.3107 45.6227 79.3107 44.534C79.3107 43.43 79.0424 42.6097 78.5057 42.073C77.9844 41.521 77.2254 41.245 76.2287 41.245H68.5237V38.6H76.2287C78.2834 38.6 79.8857 39.106 81.0357 40.118C82.1857 41.13 82.7607 42.602 82.7607 44.534C82.7607 46.4507 82.1857 47.915 81.0357 48.927C79.8857 49.939 78.2834 50.445 76.2287 50.445H68.2937Z" fill="white" fill-opacity="0.3"/>
<path d="M53.0133 50.445C51.7713 50.445 50.8206 50.1307 50.1613 49.502C49.502 48.8733 49.1723 47.9763 49.1723 46.811C49.1723 45.661 49.502 44.7717 50.1613 44.143C50.8206 43.5143 51.7713 43.2 53.0133 43.2H61.8453V42.648C61.8453 41.7127 61.3853 41.245 60.4653 41.245H50.7133V38.6H61.3393C62.7346 38.6 63.7236 38.922 64.3063 39.566C64.889 40.1947 65.1803 41.084 65.1803 42.234V50.445H53.0133ZM53.6113 47.8H61.8453V45.845H53.6113C53.32 45.845 53.09 45.937 52.9213 46.121C52.768 46.2897 52.6913 46.5197 52.6913 46.811C52.6913 47.1023 52.768 47.34 52.9213 47.524C53.09 47.708 53.32 47.8 53.6113 47.8Z" fill="white" fill-opacity="0.3"/>
<path d="M44 50.445V34H47.335V50.445H44Z" fill="white" fill-opacity="0.3"/>
<path d="M79 27.7899C79 25.5299 79.4451 23.2919 80.31 21.204C81.1749 19.1159 82.4426 17.2187 84.0407 15.6206C85.6388 14.0225 87.536 12.7548 89.624 11.8899C91.7121 11.0251 93.95 10.5799 96.2101 10.5799V27.7899H79Z" fill="white" fill-opacity="0.3"/>
<path d="M79 27.7899C79 30.05 79.4451 32.2879 80.31 34.376C81.1749 36.464 82.4426 38.3612 84.0407 39.9593C85.6388 41.5574 87.536 42.8251 89.624 43.69C91.7121 44.5549 93.95 45 96.2101 45V27.7899H79Z" fill="white" fill-opacity="0.3"/>
<path d="M113.42 27.7899C113.42 30.05 112.975 32.2879 112.11 34.376C111.245 36.464 109.978 38.3612 108.379 39.9593C106.781 41.5574 104.884 42.8251 102.796 43.69C100.708 44.5549 98.4701 45 96.2101 45V27.7899H113.42Z" fill="white" fill-opacity="0.3"/>
<path d="M124.031 12.922C124.031 20.0586 118.246 25.844 111.109 25.844H98.1872V12.922C98.1872 5.7854 103.973 0 111.109 0C118.246 0 124.031 5.7854 124.031 12.922Z" fill="white" fill-opacity="0.3"/>
<path d="M100.978 19.525V12.865H104.308C105.112 12.865 105.739 13.063 106.189 13.459C106.639 13.855 106.864 14.428 106.864 15.178C106.864 15.934 106.639 16.51 106.189 16.906C105.739 17.302 105.112 17.5 104.308 17.5H102.283V19.525H100.978ZM104.308 13.9H102.283V16.465H104.308C104.698 16.465 104.995 16.36 105.199 16.15C105.409 15.934 105.514 15.61 105.514 15.178C105.514 14.752 105.409 14.434 105.199 14.224C104.995 14.008 104.698 13.9 104.308 13.9ZM107.675 17.5V12.865H111.221C111.743 12.865 112.127 12.997 112.373 13.261C112.619 13.519 112.742 13.861 112.742 14.287V15.25H111.419V14.449C111.419 14.089 111.239 13.909 110.879 13.909H108.998V17.5H107.675ZM116.01 17.545C115.206 17.545 114.579 17.347 114.129 16.951C113.679 16.549 113.454 15.961 113.454 15.187C113.454 14.407 113.679 13.819 114.129 13.423C114.579 13.021 115.206 12.82 116.01 12.82H117.675C118.479 12.82 119.106 13.021 119.556 13.423C120.006 13.819 120.231 14.407 120.231 15.187C120.231 15.961 120.006 16.549 119.556 16.951C119.106 17.347 118.479 17.545 117.675 17.545H116.01ZM116.01 16.51H117.675C118.065 16.51 118.362 16.402 118.566 16.186C118.776 15.97 118.881 15.637 118.881 15.187C118.881 14.731 118.776 14.395 118.566 14.179C118.362 13.963 118.065 13.855 117.675 13.855H116.01C115.62 13.855 115.32 13.963 115.11 14.179C114.906 14.395 114.804 14.731 114.804 15.187C114.804 15.637 114.906 15.97 115.11 16.186C115.32 16.402 115.62 16.51 116.01 16.51Z" fill="white" fill-opacity="0.3"/>
</svg>
