<svg width="87" height="25" viewBox="0 0 87 25" fill="none" xmlns="http://www.w3.org/2000/svg">
<mask id="mask0_0_1" style="mask-type:alpha" maskUnits="userSpaceOnUse" x="0" y="0" width="66" height="37">
<path d="M0 0.261444H65.6733V12.8909H0V0.261444Z" fill="#D9D9D9"/>
<path d="M0 17.1008H65.6733V36.466H0V17.1008Z" fill="#D9D9D9"/>
</mask>
<g mask="url(#mask0_0_1)">
<path d="M5.02061 23.8365L20.1136 4.55984H0.841967V0.261444H26.1009V4.89916L11.0391 23.8365H5.02061Z" fill="white"/>
<path d="M20.1136 4.43914H0.841967V0.261444H26.1009V4.47127L20.1136 4.43914Z" fill="#FF7914"/>
<mask id="mask1_0_1" style="mask-type:alpha" maskUnits="userSpaceOnUse" x="44" y="-2" width="22" height="26">
<path d="M44.6242 23.9945V-2H49.2911V23.9945H44.6242ZM45.4288 23.9945V20.3382H56.5327C57.9274 20.3382 58.9895 19.9672 59.7191 19.2253C60.4701 18.4623 60.8456 17.3283 60.8456 15.8233C60.8456 14.2972 60.4701 13.1632 59.7191 12.4213C58.9895 11.6583 57.9274 11.2767 56.5327 11.2767H54.6329V7.62035H56.5327C59.4079 7.62035 61.6502 8.31983 63.2594 9.71879C64.8687 11.1177 65.6733 13.1526 65.6733 15.8233C65.6733 18.4729 64.8687 20.4971 63.2594 21.8961C61.6502 23.295 59.4079 23.9945 56.5327 23.9945H45.4288Z" fill="white"/>
</mask>
<g mask="url(#mask1_0_1)">
<path d="M40 -2H71V29H40V-2Z" fill="white"/>
</g>
<path d="M43.7822 15.646V7.21L39.1154 7.21L39.1154 15.646H43.7822ZM39.1154 24.0493V20.2891H31.8737C30.479 20.2891 29.4169 19.9076 28.6873 19.1447C27.9364 18.3599 27.5609 17.1937 27.5609 15.646C27.5609 14.0765 27.9364 12.9103 28.6873 12.1474C29.4169 11.3626 30.479 10.9702 31.8737 10.9702H42.6557V7.21H31.8737C28.9985 7.21 26.7562 7.92935 25.147 9.36805C23.5377 10.8067 22.7331 12.8994 22.7331 15.646C22.7331 18.3708 23.5377 20.4526 25.147 21.8913C26.7562 23.33 28.9985 24.0493 31.8737 24.0493H39.1154Z" fill="white"/>
</g>
<path d="M82.7011 4.81223C81.8822 4.81223 81.2437 4.61057 80.7854 4.20726C80.327 3.79784 80.0979 3.19898 80.0979 2.4107C80.0979 1.6163 80.327 1.01744 80.7854 0.614132C81.2437 0.204711 81.8822 0 82.7011 0H84.3968C85.2157 0 85.8542 0.204711 86.3125 0.614132C86.7708 1.01744 87 1.6163 87 2.4107C87 3.19898 86.7708 3.79784 86.3125 4.20726C85.8542 4.61057 85.2157 4.81223 84.3968 4.81223H82.7011ZM82.7011 3.75812H84.3968C84.794 3.75812 85.0965 3.64813 85.3043 3.42814C85.5181 3.20815 85.6251 2.869 85.6251 2.4107C85.6251 1.94628 85.5181 1.60408 85.3043 1.38409C85.0965 1.1641 84.794 1.05411 84.3968 1.05411H82.7011C82.3039 1.05411 81.9983 1.1641 81.7845 1.38409C81.5767 1.60408 81.4728 1.94628 81.4728 2.4107C81.4728 2.869 81.5767 3.20815 81.7845 3.42814C81.9983 3.64813 82.3039 3.75812 82.7011 3.75812Z" fill="#FF7914"/>
<path d="M74.2122 4.76639V0.0458298H77.8237C78.3553 0.0458298 78.7464 0.180266 78.997 0.44914C79.2475 0.711903 79.3728 1.06022 79.3728 1.49408V2.47486H78.0254V1.65907C78.0254 1.29243 77.842 1.1091 77.4754 1.1091H75.5597V4.76639H74.2122Z" fill="#FF7914"/>
<path d="M67.3913 6.82878V0.0458298H70.7828C71.6016 0.0458298 72.2402 0.247485 72.6985 0.650795C73.1568 1.05411 73.386 1.63768 73.386 2.40153C73.386 3.17149 73.1568 3.75812 72.6985 4.16143C72.2402 4.56474 71.6016 4.76639 70.7828 4.76639H68.7204V6.82878H67.3913ZM70.7828 1.09994H68.7204V3.71229H70.7828C71.18 3.71229 71.4825 3.60535 71.6902 3.39147C71.9041 3.17148 72.0111 2.8415 72.0111 2.40153C72.0111 1.96766 71.9041 1.64379 71.6902 1.42992C71.4825 1.20993 71.18 1.09994 70.7828 1.09994Z" fill="#FF7914"/>
<path d="M64.8502 4.7664V3.45564H66.3168V4.7664H64.8502Z" fill="#FF7914"/>
</svg>
