<?xml version="1.0" standalone="no"?>
<!DOCTYPE svg PUBLIC "-//W3C//DTD SVG 20010904//EN"
 "http://www.w3.org/TR/2001/REC-SVG-20010904/DTD/svg10.dtd">
<svg version="1.0" xmlns="http://www.w3.org/2000/svg"
 width="512.000000pt" height="512.000000pt" viewBox="0 0 512.000000 512.000000"
 preserveAspectRatio="xMidYMid meet">

<g transform="translate(0.000000,512.000000) scale(0.100000,-0.100000)"
fill="#000000" stroke="none">
<path d="M3810 4853 c-400 -65 -761 -224 -1055 -461 -38 -32 -120 -106 -181
-165 l-112 -108 -515 226 c-328 143 -528 225 -548 225 -30 0 -59 -26 -291
-258 -265 -264 -272 -274 -252 -327 4 -9 115 -104 248 -212 132 -109 312 -255
398 -325 l158 -129 -44 -63 c-56 -82 -78 -149 -85 -260 l-6 -90 -260 -123
c-143 -68 -268 -133 -277 -144 -27 -32 -22 -65 17 -108 19 -21 35 -41 35 -43
0 -3 -30 -17 -68 -31 -90 -36 -196 -118 -257 -199 -33 -43 -77 -127 -125 -235
-41 -92 -123 -274 -182 -403 -115 -249 -124 -284 -87 -321 21 -21 26 -22 231
-15 l210 8 -7 -24 c-4 -13 -29 -72 -55 -131 -88 -198 -203 -371 -370 -558 -98
-109 -107 -133 -65 -174 29 -30 77 -32 227 -10 244 37 506 127 699 240 33 19
62 35 64 35 2 0 -12 -57 -31 -127 -42 -158 -43 -185 -8 -212 15 -12 37 -21 50
-21 48 0 255 49 375 90 375 125 631 314 787 582 l45 78 49 -46 c43 -40 54 -45
80 -40 17 3 36 10 42 15 6 5 67 129 136 275 l125 265 76 1 c114 0 218 37 303
107 16 13 32 23 36 21 4 -2 131 -154 281 -338 l274 -335 3 113 3 113 -135 167
c-74 92 -176 218 -226 279 l-92 113 226 232 226 233 0 98 0 98 -34 -27 c-18
-15 -177 -171 -352 -346 -367 -367 -376 -373 -509 -373 -134 0 -153 12 -358
214 l-177 175 310 311 c286 287 310 313 310 345 0 31 -15 49 -153 187 -138
138 -156 153 -187 153 -32 0 -58 -24 -345 -310 l-311 -310 -175 177 c-201 203
-214 225 -214 353 0 143 -9 132 597 736 542 540 614 605 798 716 98 59 155 87
273 137 l98 40 19 -32 c119 -203 245 -380 364 -512 l45 -50 1 113 0 114 -34
41 c-73 91 -252 364 -244 372 2 2 65 16 141 31 l137 28 0 73 c0 80 2 78 -70
66z m-1913 -656 c244 -105 443 -194 443 -197 0 -3 -128 -133 -283 -288 l-284
-284 -359 293 c-197 160 -361 294 -364 296 -2 2 81 89 185 193 125 126 195
188 205 185 8 -3 214 -92 457 -198z m913 -1392 l75 -75 -255 -255 -255 -255
-77 77 -78 78 252 252 c139 139 255 253 258 253 3 0 39 -34 80 -75z m-1214
-77 c21 -44 1056 -1080 1116 -1119 l47 -30 -33 -72 c-99 -211 -150 -317 -155
-317 -13 0 -1385 1382 -1376 1386 6 3 93 45 195 94 102 48 186 89 187 89 1 1
10 -14 19 -31z m168 -957 l589 -589 -32 -67 c-127 -272 -430 -490 -834 -600
-54 -14 -102 -25 -106 -23 -4 2 14 84 40 183 27 99 49 189 49 201 0 33 -36 64
-75 64 -27 0 -53 -14 -114 -59 -146 -108 -315 -195 -496 -254 -83 -27 -247
-69 -252 -64 -1 2 25 39 58 82 129 169 249 392 314 585 42 125 44 168 11 199
-25 23 -25 23 -221 16 l-196 -7 14 33 c38 89 270 599 290 638 57 114 218 224
367 250 3 1 270 -264 594 -588z"/>
<path d="M3331 3904 c-339 -91 -448 -533 -192 -777 211 -201 554 -162 710 81
l31 49 0 203 0 203 -31 49 c-39 60 -115 130 -174 158 -104 50 -236 63 -344 34z
m264 -163 c112 -52 177 -156 177 -281 0 -126 -62 -224 -177 -281 -60 -29 -70
-31 -147 -27 -125 7 -206 56 -264 160 -26 48 -29 62 -29 148 0 79 4 102 23
137 35 67 79 110 144 143 52 25 73 30 137 30 63 0 86 -5 136 -29z"/>
</g>
</svg>
