<?xml version="1.0" standalone="no"?>
<!DOCTYPE svg PUBLIC "-//W3C//DTD SVG 20010904//EN"
 "http://www.w3.org/TR/2001/REC-SVG-20010904/DTD/svg10.dtd">
<svg version="1.0" xmlns="http://www.w3.org/2000/svg"
 width="512.000000pt" height="512.000000pt" viewBox="0 0 512.000000 512.000000"
 preserveAspectRatio="xMidYMid meet">

<g transform="translate(0.000000,512.000000) scale(0.100000,-0.100000)"
fill="#ffffff" stroke="none">
<path d="M3060 4839 c-56 -25 -77 -44 -100 -89 -42 -83 -34 -166 23 -235 97
-118 283 -91 348 50 63 136 -43 296 -196 295 -16 0 -50 -10 -75 -21z m147 -66
c46 -22 73 -67 73 -123 0 -84 -57 -140 -141 -140 -107 0 -174 117 -119 208 41
66 116 89 187 55z"/>
<path d="M2494 4587 c-22 -12 -314 -341 -366 -412 -76 -103 -130 -252 -143
-401 l-7 -72 -36 -6 c-102 -17 -227 -112 -274 -208 -38 -77 -48 -151 -48 -349
l0 -177 -252 -132 c-139 -73 -280 -151 -314 -175 -173 -123 -284 -323 -315
-564 -10 -81 -10 -93 5 -116 26 -39 54 -45 222 -45 l154 0 0 -69 0 -70 -37 -3
c-74 -6 -48 -68 29 -68 30 0 38 -4 38 -17 0 -10 16 -173 35 -363 19 -190 35
-352 35 -361 0 -10 -17 -20 -50 -28 -65 -17 -157 -77 -199 -130 -36 -45 -80
-142 -81 -176 -1 -33 -12 -42 -68 -54 -29 -6 -65 -17 -80 -25 -63 -33 -121
-128 -122 -198 l0 -37 -101 -3 c-82 -2 -104 -6 -112 -20 -8 -12 -7 -21 2 -32
12 -15 211 -16 2131 -16 1920 0 2119 1 2131 16 9 11 10 20 2 32 -9 15 -34 17
-175 20 l-165 2 -11 38 c-6 20 -26 54 -44 76 -30 37 -115 86 -149 86 -14 0
-17 15 -21 87 -7 142 -64 233 -183 294 -48 25 -65 39 -64 54 0 11 17 184 37
385 l37 365 43 6 c49 6 65 19 60 45 -2 14 -14 20 -41 22 l-37 3 0 70 0 69 166
0 166 0 30 31 c30 30 31 31 24 105 -17 188 -92 365 -208 489 -89 96 -133 124
-430 279 l-248 129 0 192 c0 140 -4 207 -16 250 -38 147 -145 253 -292 287
l-49 12 -7 76 c-12 137 -51 257 -118 361 -34 53 -325 392 -374 437 -28 24 -76
29 -110 9z m232 -251 c93 -107 186 -223 207 -258 l38 -63 -216 -3 c-118 -1
-312 -1 -430 0 l-215 3 38 62 c48 80 372 453 393 453 9 0 92 -87 185 -194z
m-218 -487 l-3 -91 -52 -19 c-67 -26 -126 -90 -147 -160 -20 -67 -20 -191 0
-258 20 -68 83 -133 153 -158 l51 -18 0 -343 c0 -266 -3 -343 -12 -346 -138
-38 -201 -78 -256 -162 -48 -76 -62 -146 -62 -316 l0 -148 -48 0 c-90 0 -83
-96 -79 1031 2 790 6 1003 16 1037 l13 42 215 0 214 0 -3 -91z m504 54 c10
-30 13 -262 16 -1040 3 -1130 10 -1033 -78 -1033 l-48 0 -4 178 c-3 166 -5
180 -29 233 -50 106 -139 181 -243 204 l-51 12 -3 344 -2 344 50 18 c61 22
114 66 143 121 19 36 22 56 22 166 0 109 -3 130 -22 166 -36 66 -92 111 -175
138 -15 5 -18 18 -18 96 l0 90 215 0 214 0 13 -37z m-397 -232 c84 -39 105
-83 105 -222 0 -80 -4 -108 -20 -139 -52 -102 -196 -124 -282 -43 -46 42 -58
81 -58 183 0 130 26 185 105 221 51 24 99 24 150 0z m-637 -281 l-3 -241 -143
-75 -144 -75 4 198 c4 220 10 245 84 331 36 43 141 102 181 102 l23 0 -2 -240z
m1208 223 c69 -23 154 -110 182 -186 20 -51 22 -78 22 -241 l0 -183 -145 75
-145 74 0 239 c0 271 -7 254 86 222z m-1206 -968 l0 -425 -193 0 -192 0 -35
48 c-63 85 -170 121 -271 90 -46 -13 -113 -68 -135 -109 l-15 -29 -149 0
c-170 0 -163 -5 -130 84 47 125 163 259 286 332 54 31 822 432 832 434 1 0 2
-191 2 -425z m1193 391 c34 -18 143 -75 242 -126 574 -294 631 -330 719 -453
43 -60 96 -162 111 -214 l6 -23 -154 0 -154 0 -14 26 c-22 43 -95 100 -144
114 -99 28 -208 -11 -268 -96 l-31 -44 -193 0 -193 0 0 425 c0 234 3 425 6
425 3 0 33 -15 67 -34z m-507 -674 c62 -32 97 -65 129 -124 30 -52 30 -55 33
-230 l4 -178 -292 0 -292 0 4 173 c3 155 5 177 26 218 31 63 96 125 157 149
65 26 172 23 231 -8z m-1202 -96 c65 -49 70 -69 74 -283 l4 -193 -177 0 -177
0 4 193 c4 205 8 226 60 274 35 33 67 43 125 40 37 -3 61 -11 87 -31z m2313
23 c42 -15 92 -68 103 -109 5 -19 10 -115 10 -212 l0 -178 -170 0 c-136 0
-172 3 -176 14 -3 8 -2 99 3 203 8 175 10 191 32 222 42 58 131 85 198 60z
m-2657 -209 l0 -81 -157 3 -158 3 2 45 c2 25 5 60 8 78 l6 32 149 0 150 0 0
-80z m860 0 l0 -80 -185 0 -185 0 0 80 0 80 185 0 185 0 0 -80z m1496 64 c-3
-9 -6 -45 -6 -80 l0 -64 -185 0 -185 0 0 80 0 80 191 0 c170 0 190 -2 185 -16z
m789 -6 c3 -13 7 -48 8 -78 l2 -55 -157 -3 -158 -3 0 81 0 80 150 0 c147 0
150 0 155 -22z m-2281 -256 c10 -79 57 -122 131 -122 38 0 42 -6 21 -36 -28
-39 -24 -97 9 -129 19 -20 34 -25 75 -25 27 0 50 -3 50 -7 0 -5 7 -53 15 -108
21 -149 28 -135 -70 -135 -98 0 -171 -23 -240 -75 l-44 -34 -68 31 c-82 39
-198 49 -275 25 l-48 -15 0 27 c0 15 9 114 20 221 11 107 20 200 20 207 0 8
14 13 38 13 77 0 103 62 29 68 l-37 3 0 70 0 69 184 0 183 0 7 -48z m1496 -21
l0 -70 -36 -3 c-80 -7 -63 -68 18 -68 21 0 38 -3 38 -7 0 -5 9 -89 19 -188 11
-99 18 -181 16 -183 -1 -1 -28 4 -61 13 -144 37 -289 2 -401 -99 l-50 -45 -27
28 c-35 37 -108 76 -168 91 -43 11 -47 14 -43 39 6 36 25 180 25 192 0 5 23 9
50 9 40 0 56 5 75 24 42 42 41 73 -3 159 -2 4 14 7 35 7 74 0 133 62 133 140
l0 30 190 0 190 0 0 -69z m-605 -148 c48 -81 59 -78 -335 -78 -393 0 -382 -3
-334 78 l29 47 306 0 307 0 27 -47z m-1365 -10 c0 -10 -16 -190 -37 -400 l-38
-383 -56 0 c-32 0 -63 -2 -71 -5 -11 -4 -21 74 -54 400 l-40 405 148 0 c134 0
148 -2 148 -17z m2355 -25 c-3 -24 -19 -180 -36 -348 -16 -167 -32 -306 -34
-309 -3 -2 -5 5 -5 16 0 42 -69 160 -125 212 l-56 53 -19 191 c-11 105 -20
199 -20 209 0 17 12 18 151 18 l150 0 -6 -42z m-1125 -125 c0 -5 -16 -139 -36
-298 l-37 -290 -66 22 c-40 14 -91 23 -128 23 l-62 0 -6 33 c-5 34 -65 500
-65 511 0 9 400 8 400 -1z m770 -280 c103 -46 203 -174 216 -276 l5 -42 -63
-30 c-53 -25 -68 -38 -96 -85 -26 -44 -32 -64 -30 -100 3 -40 6 -45 27 -45 20
0 26 7 36 48 25 97 83 142 178 139 75 -3 135 -31 187 -88 70 -76 91 -159 66
-254 -18 -68 -10 -80 56 -80 29 0 64 -8 87 -20 36 -18 81 -73 81 -99 0 -8
-117 -11 -446 -9 l-446 3 -20 53 c-28 75 -113 163 -196 204 -59 29 -77 33
-161 35 l-95 2 -13 51 c-19 73 -49 127 -105 186 l-50 53 21 164 c12 90 21 169
21 175 0 19 41 14 95 -12 29 -13 71 -47 101 -80 31 -33 58 -54 65 -51 8 3 25
21 38 40 31 46 112 105 175 127 68 25 202 20 266 -9z m-1206 -33 c9 -9 35
-175 36 -227 0 -13 -6 -23 -12 -23 -30 0 -122 -53 -167 -95 -64 -60 -105 -124
-127 -201 l-18 -62 -76 -4 c-89 -5 -162 -37 -229 -101 -42 -41 -101 -145 -101
-179 0 -17 -29 -18 -460 -18 l-460 0 0 38 c1 90 89 168 182 159 29 -2 63 -15
88 -31 48 -31 66 -33 75 -6 8 25 -5 42 -51 71 -41 25 -43 45 -13 126 27 70 93
143 162 178 70 34 94 32 32 -4 -70 -40 -102 -77 -89 -99 17 -27 44 -26 72 2
15 13 54 37 87 52 110 51 249 34 344 -41 47 -38 67 -41 85 -13 14 24 -27 66
-106 108 -59 32 -60 33 -55 69 3 20 9 76 13 125 8 102 18 118 86 137 95 26
215 7 284 -46 41 -31 55 -31 85 1 32 35 103 75 158 91 49 14 158 10 175 -7z
m308 -332 c113 -52 201 -168 214 -285 9 -76 11 -77 89 -66 171 25 319 -54 374
-200 l11 -27 -815 0 -814 0 11 33 c29 85 99 156 179 182 30 10 76 15 123 14
42 -1 80 1 83 5 4 4 13 34 20 68 30 146 120 250 256 294 68 22 200 13 269 -18z"/>
<path d="M4046 4404 c-146 -35 -294 -149 -363 -280 -138 -261 -36 -593 226
-732 96 -52 154 -66 266 -65 159 0 272 48 385 162 168 170 207 426 98 635 -40
75 -144 181 -219 224 -114 64 -268 86 -393 56z m295 -83 c75 -28 160 -91 205
-149 l36 -47 -157 -5 c-157 -5 -157 -5 -181 -33 -36 -42 -34 -109 5 -148 25
-24 38 -29 78 -29 60 0 78 -13 92 -66 18 -66 49 -88 137 -92 87 -5 88 -6 44
-96 -118 -238 -410 -333 -652 -210 -50 25 -168 128 -168 146 0 4 65 8 144 8
140 0 145 1 175 26 36 30 49 81 31 125 -21 49 -53 63 -159 69 -75 4 -96 9
-105 23 -16 24 4 51 40 55 95 8 118 15 146 42 44 44 37 120 -16 162 -17 15
-43 18 -149 18 -125 0 -127 0 -117 20 20 37 117 125 167 153 81 44 146 57 253
53 66 -2 112 -10 151 -25z m-337 -283 c13 -19 14 -25 2 -43 -10 -15 -27 -21
-77 -25 -75 -6 -103 -20 -124 -60 -19 -37 -19 -63 0 -100 23 -45 62 -60 158
-60 92 0 111 -10 105 -52 -3 -23 -4 -23 -169 -26 l-167 -2 -16 47 c-32 94 -31
227 3 316 l11 27 129 0 c123 0 131 -1 145 -22z m623 -23 c8 -22 17 -75 20
-117 l6 -78 -76 0 c-82 0 -97 10 -97 60 0 12 -15 37 -34 56 -30 30 -40 34 -84
34 -72 0 -104 37 -66 75 13 13 39 15 166 13 l151 -3 14 -40z"/>
<path d="M815 4134 c-63 -15 -124 -39 -159 -63 -32 -22 -49 -27 -79 -23 -164
20 -226 -81 -121 -198 28 -31 32 -43 36 -110 15 -248 254 -415 486 -341 38 13
92 40 121 62 35 27 62 39 79 38 61 -5 92 2 121 27 48 40 38 103 -28 180 -20
22 -28 43 -30 79 -7 140 -106 275 -238 325 -50 18 -153 32 -188 24z m189 -98
c63 -31 120 -89 149 -155 32 -69 29 -178 -6 -255 -26 -56 -27 -58 -59 -51
-119 25 -303 108 -440 198 -85 56 -90 65 -59 125 78 152 262 213 415 138z
m-471 -102 l-26 -46 -18 23 c-19 25 -24 51 -12 62 3 4 23 7 44 7 l38 0 -26
-46z m265 -322 c55 -27 134 -60 176 -73 42 -13 76 -27 76 -30 0 -4 -21 -18
-47 -31 -40 -19 -64 -23 -138 -23 -99 0 -141 15 -209 76 -43 37 -96 140 -96
185 l0 34 69 -45 c38 -24 114 -67 169 -93z m459 -3 c11 -20 10 -26 -4 -36 -9
-7 -27 -13 -39 -13 -22 0 -22 0 -6 40 19 44 31 46 49 9z"/>
<path d="M1248 2969 c-40 -20 -49 -47 -24 -68 11 -10 23 -8 54 8 44 23 54 37
40 64 -11 22 -24 21 -70 -4z"/>
<path d="M1040 2858 c-232 -132 -400 -362 -456 -624 -18 -88 -15 -114 14 -114
24 0 42 19 42 45 0 12 9 57 20 100 55 215 207 414 405 529 50 30 65 44 65 61
0 18 -17 36 -33 35 -1 0 -27 -14 -57 -32z"/>
<path d="M4392 1433 c-5 -10 -15 -35 -21 -55 -7 -21 -32 -59 -56 -86 -39 -43
-66 -59 -152 -93 -46 -18 -20 -65 47 -84 68 -20 150 -109 170 -186 12 -42 44
-61 65 -38 6 8 19 35 29 60 30 83 88 135 199 178 15 6 30 18 33 26 8 21 -20
51 -54 58 -66 14 -156 99 -177 167 -19 64 -63 92 -83 53z m97 -196 c20 -21 49
-45 64 -53 l28 -15 -38 -28 c-40 -30 -80 -71 -105 -109 l-16 -23 -21 34 c-21
35 -81 92 -115 112 -16 9 -12 14 28 43 25 18 60 53 77 77 32 45 32 45 47 22 8
-12 31 -39 51 -60z"/>
</g>
</svg>
